<?xml version="1.0" encoding="UTF-8" standalone="no"?>
<svg
   xmlns:dc="http://purl.org/dc/elements/1.1/"
   xmlns:cc="http://creativecommons.org/ns#"
   xmlns:rdf="http://www.w3.org/1999/02/22-rdf-syntax-ns#"
   xmlns:svg="http://www.w3.org/2000/svg"
   xmlns="http://www.w3.org/2000/svg"
   viewBox="0 0 5333.3335 5333.3335"
   height="250px"
   width="250px"
   xml:space="preserve"
   id="svg2"
   version="1.1"><metadata
     id="metadata8"><rdf:RDF><cc:Work
         rdf:about=""><dc:format>image/svg+xml</dc:format><dc:type
           rdf:resource="http://purl.org/dc/dcmitype/StillImage" /></cc:Work></rdf:RDF></metadata><defs
     id="defs6" /><g
     transform="matrix(1.3333333,0,0,-1.3333333,0,5333.3333)"
     id="g10"><g
       transform="scale(0.1)"
       id="g12"><g
         transform="scale(2.45399)"
         id="g14"><path
           id="path16"
           style="fill:transparent;fill-opacity:1;fill-rule:nonzero;stroke:none"
           d="M 0,16300 H 16300 V 0 H 0 v 16300" /></g><g
         transform="scale(2.18858)"
         id="g18"><path
           id="path20"
           style="fill:#f5ecd8;fill-opacity:1;fill-rule:nonzero;stroke:none"
           d="m 13796.4,11939.4 c 618.2,383.2 806.8,-824 1190,-1442.2 383.2,-618.29 1313.6,-872.8 695.4,-1256.01 -618.2,-383.22 -1661.9,119.21 -2171.7,638.03 -741.2,754.38 -331.9,1676.98 286.3,2060.18" /></g><g
         transform="scale(1.9818)"
         id="g22"><path
           id="path24"
           style="fill:#f5ecd8;fill-opacity:1;fill-rule:nonzero;stroke:none"
           d="m 2206.91,10894.3 c -845.87,995.5 -313.04,1568.1 911.42,1861.5 1266.86,303.4 612.23,3544.2 1440.19,2928 1046.18,-778.7 902.62,-2766.5 576.86,-3745.9 -476,-1431 -1484.53,-2742.94 -2928.47,-1043.6" /></g><g
         transform="scale(2.35642)"
         id="g26"><path
           id="path28"
           style="fill:#f5ecd8;fill-opacity:1;fill-rule:nonzero;stroke:none"
           d="m 16300,4594.98 c 0,-267.52 -47.9,-536.28 -139.7,-779.48 -55.2,-145.95 -133,-290.15 -230.9,-417.54 -97.9,-127.36 -215.8,-237.91 -350.7,-316.42 -247.5,-143.99 -524.2,-227.29 -810.3,-278.77 -286.2,-51.47 -581.9,-71.04 -867.4,-87.38 -126.6,-7.3 -253.6,-13.32 -380.8,-17.52 -127.1,-4.21 -254.4,-6.58 -381.6,-6.58 -165.1,0 -330.2,4.07 -494.9,13.37 -164.6,9.37 -328.9,24.02 -492.2,45.28 -111,14.38 -221.6,30.89 -331.9,48.88 -110.4,18.08 -220.6,37.6 -330.4,58.31 -140.2,26.44 -280.1,54.75 -419.7,83.94 -139.8,29.2 -279.3,59.29 -418.9,89.42 -139.5,30.17 -279.1,60.22 -418.9,89.5 -139.7,29.2 -279.64,57.46 -419.73,83.94 -45.07,8.49 -90.3,17.32 -136.18,26.19 -130.03,25.33 -262.94,51.22 -396.07,70.74 -133.08,19.56 -266.59,32.8 -397.68,32.8 -90.18,0 -179.25,-6.24 -266.46,-20.96 -87.12,-14.73 -172.38,-37.98 -254.84,-71.93 -34.62,-14.26 -68.57,-30.13 -102.1,-46.85 -33.61,-16.68 -66.88,-34.29 -100.15,-51.78 -40.83,-21.55 -81.69,-43.07 -123.24,-63.1 -41.55,-20.03 -83.77,-38.62 -127.23,-54.11 -108.81,-38.7 -333.26,-93.79 -333.26,-93.79 -0.29,-0.04 -315.52,-79.35 -471.77,-124.38 -44.94,-12.9 -89.21,-25.93 -134.02,-39.17 -72.4,-21.47 -144.16,-43.03 -216.47,-64.76 -71.85,-21.68 -144.42,-43.54 -216.39,-64.84 l -14.56,-4.29 c -306.61,-90.86 -615.55,-182.31 -927.63,-257.08 -312.09,-74.74 -627.19,-132.75 -946.27,-156.56 -70.96,-5.3 -142.04,-7.8 -213.33,-7.8 -242.8,0 -486.77,29.45 -726.93,79.9 -240.09,50.46 -476.31,121.8 -703.58,205.66 -257.06,94.84 -513.11,210.83 -751.78,353.16 -238.67,142.29 -459.89,310.85 -647.42,510.86 -190.53,203.23 -327.15,453.36 -424.92,721.65 -97.78,268.33 -156.78,554.87 -192.225,830.88 -22.272,173.48 -37.955,348.79 -45.833,524.61 -3.937,86.27 -5.906,172.68 -5.906,259.08 0,307.12 25.327,613.98 82.094,913.88 30.96,163.35 69.8,339.21 133.9,499.75 64.09,160.49 153.45,305.67 285.51,407.73 132.07,102.07 290.75,159.78 458.05,194.75 167.38,35.01 343.24,47.32 509.73,58.77 l 6.18,0.43 5.9,0.38 c 107.22,7.34 219.93,12.05 335.09,16.81 311.45,12.9 641.38,26.6 935.18,96.24 293.74,69.6 551.35,195.17 718.18,431.8 81.27,115.22 147.05,237.69 201.45,365.56 54.41,127.95 97.31,261.2 132.75,397.98 33.18,128.2 59.96,259.37 83.3,392.12 23.43,132.74 43.59,267.05 63.7,401.33 20.12,134.21 40.19,268.41 63.57,400.91 23.34,132.7 49.95,263.7 83.18,391.6 32.42,125.1 71.76,248.1 115.47,369.8 43.75,121.5 91.79,241.7 141.87,361.2 39.85,95.1 80.84,189.6 121.88,284.2 40.91,94.5 81.86,188.9 121.54,283.5 109.49,261.5 220.25,525.5 345.78,781.2 14.6,29.8 29.41,59.4 44.43,88.8 114.11,224.2 240.96,440.9 389.87,642.6 49.65,67.2 103,132.7 159.99,195.4 53.01,58.6 109.32,114.7 168.22,167.6 122.18,109.3 256.41,204.3 400.82,277.2 241.47,121.8 501.91,208.6 771.43,264.9 269.48,56.3 547.95,82.1 825.36,82.1 130.2,0 260.14,-5.7 388.9,-16.5 128.67,-11 256.11,-27.1 381.25,-47.9 380.96,-63.5 751.1,-225.7 1083,-450 331.9,-224.2 625.6,-510.4 853.9,-821.8 109.9,-150 217.8,-311.2 302.4,-481.3 84.4,-170.1 145.7,-349.1 162.2,-534.6 4.2,-46.3 6.1,-92.4 6.1,-138.4 0,-100.4 -9.3,-200.3 -25.3,-299.5 -20.8,-129 -53,-257.1 -90.9,-385 -37.8,-127.7 -81.4,-255.1 -125,-382.6 -43.8,-128.3 -87.7,-256.6 -125.9,-385.6 -38.2,-128.9 -70.7,-258.6 -91.9,-389.4 -11,-68.6 -16.5,-139.38 -16.5,-210.8 0,-296.93 94.4,-606.47 272.6,-833.72 112.4,-143.14 241.4,-270.58 380.4,-388.13 139,-117.56 288.1,-225.18 440.6,-328.77 93.8,-63.78 189,-126.03 283.8,-188.03 94.2,-61.58 188.4,-123.16 280.5,-185.75 36.1,-24.53 72.2,-49.57 107.8,-74.69 102.3,-72.19 203,-146.79 302.9,-222.67 99.8,-75.75 198.8,-152.78 297.7,-229.67 99,-76.94 198,-153.97 297.8,-229.72 99.8,-75.79 200.5,-150.39 302.9,-222.66 102.3,-72.15 205.9,-143.4 309.4,-214.57 186.5,-128.24 373.2,-256.66 554.3,-391.82 181.1,-135.25 356.5,-277.16 520.4,-432.61 106.4,-100.83 207.9,-212.4 294.7,-333.39 47.8,-66.54 90.9,-135.92 128.1,-208.02 30.4,-59.07 56.7,-119.93 78,-182.44 71.3,-208.75 105.7,-434.73 105.7,-661.56" /></g><path
         id="path30"
         style="fill:#f0dfbf;fill-opacity:1;fill-rule:nonzero;stroke:none"
         d="M 9957.12,13730.6 H 5334.79 v 1974.5 h 4622.33 v -1974.5" /><g
         transform="scale(1.1431)"
         id="g32"><path
           id="path34"
           style="fill:#f0dfbf;fill-opacity:1;fill-rule:nonzero;stroke:none"
           d="M 14682.6,14572.8 H 10639 V 16300 h 4043.6 v -1727.2" /></g><g
         transform="scale(1.86899)"
         id="g36"><path
           id="path38"
           style="fill:#f0dfbf;fill-opacity:1;fill-rule:nonzero;stroke:none"
           d="m 16300,8106.61 h -2473.1 v 1056.4 H 16300 v -1056.4" /></g><g
         transform="scale(1.8101)"
         id="g40"><path
           id="path42"
           style="fill:#f0dfbf;fill-opacity:1;fill-rule:nonzero;stroke:none"
           d="M 13317,15209.2 H 10763.4 V 16300 H 13317 v -1090.8" /></g><g
         transform="scale(1.9769)"
         id="g44"><path
           id="path46"
           style="fill:#f0dfbf;fill-opacity:1;fill-rule:nonzero;stroke:none"
           d="m 8489.95,16300 v -998.8 H 7061.8 c 136.02,267.2 287.22,525.5 464.72,765.9 59.18,80.1 122.77,158.2 190.7,232.9 h 772.73" /></g><g
         transform="scale(2.35642)"
         id="g48"><path
           id="path50"
           style="fill:#f6bcaa;fill-opacity:1;fill-rule:nonzero;stroke:none"
           d="m 16300,4594.98 c 0,-19.13 -0.3,-38.36 -0.8,-57.5 -0.4,-18.16 -1.1,-36.2 -2,-54.32 -11.4,-230.05 -57.8,-458.32 -136.9,-667.66 -32.2,-84.96 -71.9,-169.37 -119,-250.17 -10.9,-19.01 -22.4,-37.81 -34.3,-56.36 -24.2,-38.07 -50.1,-75.2 -77.6,-111.01 -97.9,-127.36 -215.8,-237.91 -350.7,-316.42 -94.9,-55.12 -194,-101.42 -296.3,-140.34 -17.3,-6.7 -34.7,-13.11 -52.3,-19.26 -148.8,-52.71 -303.8,-90.78 -461.7,-119.17 -286.2,-51.47 -581.9,-71.04 -867.4,-87.38 -126.6,-7.3 -253.6,-13.32 -380.8,-17.52 -127.1,-4.21 -254.4,-6.58 -381.6,-6.58 -165.1,0 -330.2,4.07 -494.9,13.37 -164.6,9.37 -328.9,24.02 -492.2,45.28 -111,14.38 -221.6,30.89 -331.9,48.88 -110.4,18.08 -220.6,37.6 -330.4,58.31 -140.2,26.44 -280.1,54.75 -419.7,83.94 -139.8,29.2 -279.3,59.29 -418.9,89.42 -139.5,30.17 -279.1,60.22 -418.9,89.5 -139.7,29.2 -279.64,57.46 -419.73,83.94 -45.07,8.49 -90.3,17.32 -136.18,26.19 -130.03,25.33 -262.94,51.22 -396.07,70.74 -133.08,19.56 -266.59,32.8 -397.68,32.8 -90.18,0 -179.25,-6.24 -266.46,-20.96 -87.12,-14.73 -172.38,-37.98 -254.84,-71.93 -34.62,-14.26 -68.57,-30.13 -102.1,-46.85 -33.61,-16.68 -66.88,-34.29 -100.15,-51.78 -40.83,-21.55 -81.69,-43.07 -123.24,-63.1 -41.55,-20.03 -83.77,-38.62 -127.23,-54.11 -108.81,-38.7 -333.26,-93.79 -333.26,-93.79 -0.29,-0.04 -315.52,-79.35 -471.77,-124.38 -44.94,-12.9 -89.21,-25.93 -134.02,-39.17 -72.4,-21.47 -144.16,-43.03 -216.47,-64.76 -71.85,-21.68 -144.42,-43.54 -216.39,-64.84 l -14.56,-4.29 c -47.78,-14.21 -95.74,-28.39 -143.65,-42.52 -61.87,-18.21 -123.87,-36.37 -186,-54.32 -198.14,-57.25 -397.43,-112.16 -597.98,-160.24 -312.09,-74.74 -627.19,-132.75 -946.27,-156.56 -70.96,-5.3 -142.04,-7.8 -213.33,-7.8 -242.8,0 -486.77,29.45 -726.93,79.9 -240.09,50.46 -476.31,121.8 -703.58,205.66 -34.22,12.64 -68.44,25.67 -102.59,39.04 -44.48,17.44 -88.88,35.61 -133.15,54.32 -176.75,75.11 -350.57,161.13 -516.04,259.8 -238.67,142.29 -459.89,310.85 -647.42,510.86 -44.07,46.98 -85.22,96.5 -123.65,148.15 -13.38,17.87 -26.35,35.99 -39.04,54.32 -109.12,158.21 -194.87,334.41 -262.23,519.18 -47.39,130.03 -85.62,264.34 -116.58,399.67 -4.15,18.12 -8.08,36.16 -11.95,54.32 -26.96,126 -47.74,252.5 -63.695,376.89 -22.272,173.48 -37.955,348.79 -45.833,524.61 H 16116.3 c 30.4,-59.07 56.7,-119.93 78,-182.44 71.3,-208.75 105.7,-434.73 105.7,-661.56" /></g><g
         transform="scale(1.53907)"
         id="g52"><path
           id="path54"
           style="fill:#6bcca7;fill-opacity:1;fill-rule:nonzero;stroke:none"
           d="m 4671.09,16132 c 0,0 -326.64,-245 -233.32,-995 93.33,-750.2 643.94,-1459.4 690.61,-1599.4 46.66,-140 223.98,-690.6 93.33,-1138.6 -130.66,-447.9 83.98,-998.6 326.63,-1101.2 242.64,-102.6 559.95,270.7 503.96,830.6 -56,559.9 -14.96,1060.4 111.99,1343.9 419.93,937.9 -307.97,1689.2 -587.95,2006.4 -279.98,317.4 -541.28,821.3 -905.25,653.3" /></g><g
         transform="scale(1.40596)"
         id="g56"><path
           id="path58"
           style="fill:#8ad6b9;fill-opacity:1;fill-rule:nonzero;stroke:none"
           d="m 8681.45,15983.3 c 0,0 -163.45,316.7 -653.86,122.6 -490.34,-194.1 -1026.65,-1195.3 -1146.71,-1981.9 -120.06,-786.6 -355.03,-755.9 -446.98,-1266.8 -91.94,-510.8 250.35,-837.7 446.98,-817.3 196.64,20.4 799.41,378.1 727.86,1246.4 -71.49,868.3 40.89,1123.8 439.27,1399.6 398.44,275.8 837.71,847.9 633.44,1297.4" /></g><g
         transform="scale(1.46325)"
         id="g60"><path
           id="path62"
           style="fill:#8ad6b9;fill-opacity:1;fill-rule:nonzero;stroke:none"
           d="m 3220.02,15907.3 c -301.03,-158.4 -530.07,-559.5 78.53,-1305.5 608.6,-746 549.71,-589 628.24,-1099.4 78.53,-510.5 107.98,-824.6 451.53,-1119 343.57,-294.5 638.06,-284.7 775.48,-618.5 137.42,-333.7 480.99,-78.5 451.54,88.3 -29.44,166.9 245.4,589.1 -461.36,1629.6 -706.76,1040.5 -584.98,981.6 -645.87,1364.4 -60.89,382.9 -532.06,1452.8 -1278.09,1060.1" /></g><g
         transform="scale(1.39409)"
         id="g64"><path
           id="path66"
           style="fill:#6bcca7;fill-opacity:1;fill-rule:nonzero;stroke:none"
           d="m 3826.69,16249.7 c 0,-0.1 0.02,-0.1 0.04,-0.1 -0.02,0 -0.04,0 -0.04,0.1 z m 2520.32,-6206.4 c -34.48,0 -63.03,27.3 -64.31,62 -67.44,1845.8 -2371.08,5805.9 -2556.51,6071.9 -9.07,7.2 -16.32,16.9 -20.58,28.5 -14.11,38.9 8.09,64.5 15.22,71.3 18.26,17.8 45.59,23 69.14,13.5 23.15,-9.4 28.65,-11.5 150.35,-215.4 82.31,-137.9 185.82,-317.5 291.45,-505.6 210.85,-375.6 533.05,-967.9 870.66,-1656.5 576.74,-1176.3 1272,-2791 1308.98,-3802.9 1.29,-35.6 -26.46,-65.5 -62.01,-66.7 -0.8,-0.1 -1.6,-0.1 -2.39,-0.1" /></g><g
         transform="scale(1.36374)"
         id="g68"><path
           id="path70"
           style="fill:#6bcca7;fill-opacity:1;fill-rule:nonzero;stroke:none"
           d="m 6693.78,10424.8 c -2.13,0 -4.27,0.1 -6.43,0.3 -36.2,3.5 -62.67,35.6 -59.18,71.9 245.62,2538.1 672.99,3969.3 988.26,4723 346.62,828.9 637.44,1049.5 649.68,1058.5 29.26,21.5 70.47,15.3 92.03,-14 21.49,-29.2 15.33,-70.2 -13.64,-91.8 -3.96,-2.9 -283.56,-222 -616.91,-1028.1 -308.12,-745.3 -726.29,-2158.8 -968.37,-4660.3 -3.3,-34 -31.95,-59.5 -65.44,-59.5" /></g><g
         transform="scale(1.44687)"
         id="g72"><path
           id="path74"
           style="fill:#8ad6b9;fill-opacity:1;fill-rule:nonzero;stroke:none"
           d="m 6195.73,9676.92 c -24.18,0 -47.17,14.24 -57.17,37.88 -59.67,141.06 -169.81,763.3 -221.42,1564.8 -44.19,686.6 -56.14,1681.2 137.93,2520.7 180.06,778.6 13.84,1385.2 -157.29,1756.9 -186.06,404.2 -418.2,626.9 -420.52,629.1 -24.84,23.6 -25.94,62.8 -2.41,87.7 23.53,24.9 62.7,26 87.64,2.5 10.07,-9.5 249.19,-238 445.54,-662 180.71,-390.3 356.52,-1026.7 167.94,-1842.2 -358.84,-1551.9 -21.23,-3777.24 76.87,-4009.12 13.35,-31.59 -1.42,-68.01 -32.96,-81.35 -7.9,-3.32 -16.1,-4.91 -24.15,-4.91" /></g><path
         id="path76"
         style="fill:#e0a393;fill-opacity:1;fill-rule:nonzero;stroke:none"
         d="m 14168.5,10692.2 v -128 H 2505.12 c -9.76,42.7 -19.04,85.2 -28.16,128 H 14168.5" /><path
         id="path78"
         style="fill:#e0a393;fill-opacity:1;fill-rule:nonzero;stroke:none"
         d="M 14741.9,8399 V 8271 H 3489.76 c -31.52,42.1 -62.08,84.8 -92,128 H 14741.9" /><g
         transform="scale(2.35631)"
         id="g80"><path
           id="path82"
           style="fill:#e0a393;fill-opacity:1;fill-rule:nonzero;stroke:none"
           d="m 16300,4537.69 c -0.5,-18.16 -1.1,-36.2 -2,-54.32 h -5153.4 v 54.32 H 16300" /></g><g
         transform="scale(2.31902)"
         id="g84"><path
           id="path86"
           style="fill:#e0a393;fill-opacity:1;fill-rule:nonzero;stroke:none"
           d="m 16300,3622.83 c -11.1,-19.32 -22.8,-38.43 -34.8,-57.27 h -5447.9 v 57.27 H 16300" /></g><path
         id="path88"
         style="fill:#e0a393;fill-opacity:1;fill-rule:nonzero;stroke:none"
         d="m 12111,10488.4 -1497.6,2293.1 107.2,70 1497.6,-2293.1 -107.2,-70" /><path
         id="path90"
         style="fill:#cbd7f1;fill-opacity:1;fill-rule:nonzero;stroke:none"
         d="m 11025.1,14919.1 v -2156.6 c 0,-707.1 -573.2,-1280.7 -1280.74,-1280.7 H 8546.64 c -703.37,4.1 -1272.81,576.3 -1272.81,1280.7 v 2156.6 h 3751.27" /><path
         id="path92"
         style="fill:#f5ecd8;fill-opacity:1;fill-rule:nonzero;stroke:none"
         d="m 9207.98,11481.8 c -396.6,240.6 -661.7,676.5 -661.7,1174.7 v 2262.6 h -661.01 v -2262.6 c 0,-497.9 265.1,-933.7 661.36,-1174.7 h 661.35" /><g
         transform="scale(1.79101)"
         id="g94"><path
           id="path96"
           style="fill:#f89b72;fill-opacity:1;fill-rule:nonzero;stroke:none"
           d="m 9818.47,15603 -1.17,2.6 c 0.72,0.5 1.51,0.9 2.23,1.5 z m -320.71,688.2 c -1.01,-0.6 -2.07,-1.3 -3.07,-2 l -1.62,3.4 z m 326.52,-685.4 c -4.64,1.3 -319.93,694.2 -330.04,690.8 -397.09,-131.3 -662.59,-304 -869.84,-614.2 -2.24,-1.5 26.35,-307.1 25.62,-309.2 70.3,-33.9 149.36,-59.8 224.85,-83 347.79,-118.6 672.64,117.7 949.41,315.6" /></g><g
         transform="scale(1.51894)"
         id="g98"><path
           id="path100"
           style="fill:#f89b72;fill-opacity:1;fill-rule:nonzero;stroke:none"
           d="m 13149.3,15947.8 c 1.1,1.6 2.1,3 3.2,4.5 l 2.1,-5.9 z m -667.8,-1789.6 c 0,0.8 0,1.6 0,2.4 l 2.3,1.2 z m -678,-308.9 0.9,0.4 h 0.8 z m 92.9,2445.2 c -0.4,-1.1 -0.9,-2.2 -1.3,-3.3 l -3.2,0.9 z M 11133.7,13869 h 1.4 c 0.4,-0.2 0.7,-0.5 1,-0.8 z m -277,791 -0.8,-0.8 1,2.2 z m 2302.4,1291.3 c -0.4,1.2 -1.4,2.1 -2.5,2.5 l -1262.7,345.7 c -1.9,0.5 -3.9,-0.6 -4.5,-2.3 -59.4,-158.7 -118.7,-317.2 -184.8,-470 -7.1,-16.4 -14.2,-32.7 -21.5,-48.9 -60.4,-135.3 -126.6,-265.6 -203.9,-387 -86.5,-136 -186.7,-260.7 -293.7,-380 -107,-119.2 -221,-233 -335,-346.7 -0.6,-0.7 -1,-1.4 -1.1,-2.3 l -0.1,-1.3 c -12.4,-94.5 -24.8,-189.4 -24.8,-278.1 0,-68.6 7.5,-133.5 27.9,-191.6 23.6,-67 64.5,-125 113.9,-178.4 49.4,-53.3 107.2,-101.9 164.8,-150.5 0.7,-0.6 1.5,-0.9 2.3,-0.9 l 671.6,-19.5 c 0.5,0 1.1,0.1 1.7,0.4 l 680.3,312.4 c 1.4,0.7 2.2,2.1 2.2,3.7 -1.5,43.5 -3.1,87 -3.1,133.3 0,87.5 5.7,184.6 28.1,309.8 17.3,95.6 44.2,207.5 81,324.8 30.3,96.2 67.1,196.1 110.7,293.7 9.7,21.5 19.6,43 30,64.3 56.8,117.5 123.9,229.8 196.1,339.5 72,109.7 149.4,216.8 226.5,323.9 0.8,1.1 1,2.4 0.6,3.5" /></g><g
         transform="scale(1.51894)"
         id="g102"><path
           id="path104"
           style="fill:#d67d52;fill-opacity:1;fill-rule:nonzero;stroke:none"
           d="m 13158.5,15947.8 c -77.1,-107.1 -154.5,-214.2 -226.5,-323.9 -72.2,-109.7 -139.3,-222 -196.1,-339.5 -10.4,-21.3 -20.3,-42.8 -30,-64.3 -628.1,-48.6 -903.3,255.8 -1022.8,558.2 7.3,16.2 14.4,32.5 21.5,48.9 66.1,152.8 125.4,311.3 184.8,470 0.6,1.7 2.6,2.8 4.5,2.3 l 1262.7,-345.7 c 1.1,-0.4 2.1,-1.3 2.5,-2.5 0.4,-1.1 0.2,-2.4 -0.6,-3.5" /></g><g
         transform="scale(1.78972)"
         id="g106"><path
           id="path108"
           style="fill:#040606;fill-opacity:1;fill-rule:nonzero;stroke:none"
           d="m 12335.6,16299.7 -0.4,0.3 1.6,-3.2 c 0,0.7 0.1,1.4 0.2,2.1 -0.5,0.3 -0.9,0.5 -1.4,0.8" /></g><g
         transform="scale(1.89048)"
         id="g110"><path
           id="path112"
           style="fill:#192543;fill-opacity:1;fill-rule:nonzero;stroke:none"
           d="m 12013.1,14903.4 c 0,-73.9 -17.4,-147.7 -46.6,-230.2 -20.2,-57 -46.2,-118.2 -74.8,-181.5 -28.6,-63.1 -59.9,-128.3 -91.3,-193.5 3.8,-263.2 7.4,-528.9 -435.4,-585 -31.9,-4 -66.2,-6.9 -102.6,-8.9 -36.4,-1.9 -74.9,-2.8 -115.5,-2.8 -239.5,0 -548.6,32.4 -892.3,81.2 -343.75,48.8 -722.22,113.7 -1100.54,178.7 -0.85,0.2 -1.53,0.6 -2.01,1.3 -106.48,162.7 -213.12,325.4 -309.44,509.7 -87.76,167.8 -167.32,354 -167.32,543.7 0,18.5 0.74,36.9 2.28,55.3 8.78,104.4 43.69,209.2 91.51,303.4 47.82,94 108.76,177.3 169.69,238.6 61.1,61.2 122.19,100.4 180.86,125.8 58.66,25.4 114.68,37 165.51,43.3 35.23,4.2 67.97,5.9 99.13,5.9 57.65,0 109.7,-5.8 161.49,-11.7 14.65,87.4 29.78,175.4 80.24,260.3 25.55,43 60.25,85.2 108.12,122.8 47.93,37.5 109.18,70.4 188.16,94.8 46.12,14.2 98.32,25.6 152.52,33.4 54.3,7.8 110.5,12 165,12 38.6,0 76.4,-2.1 111.8,-6.6 35.5,-4.5 68.7,-11.4 98.1,-20.9 71.2,-22.9 120.6,-61.1 159.1,-106.8 37.7,-44.7 64.7,-96.5 91.5,-148.1 53.5,50.8 107.6,101.5 179,131.2 28.9,12 60.5,20.4 94.4,25.9 33.7,5.5 69.7,8.1 107.1,8.1 19.5,0 39.4,-0.7 59.7,-2 49,-3.2 100,-10 151.1,-24.6 51.1,-14.7 102.3,-37.4 151.7,-72.4 49.4,-34.9 96.9,-82.1 136.9,-135.3 39.9,-53.1 72.3,-112.2 91.4,-171.1 17.7,-54.7 23.9,-109.1 23.9,-163.2 0,-61.6 -8,-122.9 -16.1,-184 -0.4,0.2 -0.8,0.5 -1.2,0.8 l -0.4,0.2 1.4,-3 c 0.1,0.7 0.2,1.3 0.2,2 31.7,-19.3 63.5,-38.7 94.8,-62.5 31.8,-24.1 63.1,-52.6 93.5,-90 30.4,-37.4 59.8,-83.8 84.2,-133.6 24.3,-50 43.4,-103.6 53.2,-155.4 5.5,-28.8 8,-57.2 8,-85.3" /></g><g
         transform="scale(1.79829)"
         id="g114"><path
           id="path116"
           style="fill:#f89b72;fill-opacity:1;fill-rule:nonzero;stroke:none"
           d="m 12300.7,15194.6 c 0,-403.1 -105.9,-929.6 -305.6,-1296.9 -108.8,-199.9 -245.5,-352.7 -389.9,-466.6 -144.4,-113.9 -296.7,-188.9 -436.7,-233.4 -116.9,-37.2 -225.4,-53.1 -327.2,-53.1 -70.2,0 -137.4,7.5 -202.1,20.9 -66.2,13.8 -129.7,33.5 -191.4,57.4 -104.5,40.7 -203.7,93.6 -292.8,162.5 -89.2,69 -168.31,154 -232.87,259.4 -64.51,105.1 -114.34,230.5 -152.1,359 -37.59,128.5 -63.05,260.2 -78.9,378.1 -17.96,134.1 -23.41,250.5 -23.41,359.3 0,82.8 3.11,161.1 6.23,239.3 v 0.1 l 0.11,0.7 c 10.67,158.4 21.35,317.1 52.32,465.8 30.98,148.7 82.3,287.5 174.23,406 91.86,118.8 224.39,217.1 380.49,290.9 156.2,73.9 336.2,123.3 523.1,144.2 70.4,8 141.8,11.8 213.2,11.8 137.2,0 274.3,-14.2 403.8,-41 80.5,-16.7 158.1,-38.2 231.1,-64.3 72.9,-26 141.1,-56.6 202.9,-91.4 137.7,-77.4 243.4,-175.5 317.1,-305.8 73.8,-130.2 115.6,-292.8 125.9,-499.2 1.6,-33.5 2.5,-68.1 2.5,-103.7" /></g><g
         transform="scale(1.72247)"
         id="g118"><path
           id="path120"
           style="fill:#040606;fill-opacity:1;fill-rule:nonzero;stroke:none"
           d="m 10619,15734.9 c 2.2,-0.3 4.3,-0.6 6.5,-0.9 -1.1,1.9 -2,3.8 -3.2,5.8 z m 451.7,509.8 c 2.3,-1.5 4.5,-3.1 6.9,-4.6 -0.6,2.7 -1.3,5.4 -1.8,8.1 z m 632.4,24 c 1,0.6 2.1,1.4 3.2,2 l -4.9,1.4 c 0.6,-1.1 1.1,-2.3 1.7,-3.4 z m 738.8,29.6 1.4,-0.8 c 0.7,-0.5 1.4,-0.8 2.1,-1.3 0.4,1.3 1,2.5 1.5,3.8 l -5,-1.7" /></g><g
         transform="scale(1.81815)"
         id="g122"><path
           id="path124"
           style="fill:#192543;fill-opacity:1;fill-rule:nonzero;stroke:none"
           d="m 12282.9,15031.7 c -9.1,-67.6 -33.6,-139.3 -65.7,-213 -32.2,-73.7 -46,-189.3 -85.6,-264.8 -0.7,-1.3 -2.2,-2.1 -3.8,-1.6 -1.3,0.4 -2.3,1.7 -2.2,3.3 7.6,132.2 -10.7,304.3 -10.7,409.1 0,11.3 -0.2,22.3 -0.3,32.9 -1,54.5 -4.5,99.8 -14.7,139.7 -10.3,39.9 -27.3,74.6 -55.3,108.2 -28,33.7 -66.8,66.4 -111.2,98.6 -43.9,31.7 -93.2,63.1 -142.9,94.6 -27.6,-69.9 -55.6,-140.2 -98,-189 -21.6,-24.9 -47,-44.2 -77.4,-58.3 -30.6,-14.1 -66.1,-22.7 -108.1,-26.4 -14.6,-1.3 -30,-2 -45.8,-2 -37.6,0 -77.9,3.8 -116.6,12.3 -38.6,8.4 -75.7,21.5 -106.5,40.3 -37.4,22.7 -66,53.6 -89.9,88.3 -23.2,33.8 -42.2,71.3 -61,108.7 -80.7,-52.5 -162.1,-105.1 -245,-120.6 -19.3,-3.5 -38.7,-5.1 -57.8,-5.1 -31.9,0 -63,4.4 -91.9,11 -29,6.5 -55.6,15.2 -78.3,23.9 -29.5,11.3 -52.8,22.7 -72.6,34.1 -17.4,9.8 -32.4,19.6 -47,29.6 5.8,-26 11.1,-54.5 13,-110.9 0.3,-9.5 0.5,-19.8 0.5,-30.7 0,-60 -6.8,-138.2 -41.2,-199 -20.4,-35.9 -50.3,-65.7 -84.5,-88.9 -34.1,-23.1 -72.4,-39.6 -109.4,-49 -31.5,-8 -62.2,-10.8 -92.3,-10.8 -38.7,0 -76.6,4.8 -114.3,9.8 39.4,-70.5 78.1,-142.7 73,-249 -2.7,-54.3 -16.7,-117.5 -39.1,-178.4 -22.3,-60.7 -53,-119.1 -88.6,-163.6 -35.72,-44.6 -76.48,-75.4 -119.71,-99.2 -43.12,-23.7 -88.71,-40.5 -134.03,-57.1 -1.54,-0.7 -3.3,0.1 -4.02,1.6 -24.47,54.4 -48.84,109 -70.68,164.6 -21.72,55.6 -40.92,112.5 -54.67,171.3 -12.32,53 -20.4,107.6 -20.4,168.5 0,74.8 -213.41,194.4 -182.16,296.3 28.1,91.9 41.96,196.1 93.39,309.5 51.37,113.5 158.45,480.4 158.45,480.4 0,0 520.43,371 521.23,371.1 l 1060.2,164.8 c 114.4,13.2 502.7,-115 544.2,-120.7 69.8,-9.8 250.5,-418 307.8,-446.7 0.8,-0.4 1.4,-1.1 1.6,-1.9 l 101.7,-315.4 c 43.2,-117.3 86.6,-235.3 68.3,-370.4" /></g><g
         transform="scale(1.60603)"
         id="g126"><path
           id="path128"
           style="fill:#d67d52;fill-opacity:1;fill-rule:nonzero;stroke:none"
           d="m 12811,16294.5 v 0 c -35.6,-83.7 -70.1,-165.5 -39.5,-238.7 v 0 c 16.5,-39.5 52,-76.8 87.1,-113.6 v 0 c 29.9,-31.4 59.5,-62.4 75.2,-93.4 v 0 c 31.5,-62.6 6.5,-124.9 -48.5,-152.6 v 0 c -4.8,-2.4 -9.8,-4.6 -15,-6.5 v 0 c -64.4,-23 -160.8,-2.3 -255.4,17.9 -2,0.4 -3.2,2.3 -2.8,4.2 0.4,2 2.4,3.3 4.3,2.8 v 0 c 95.6,-20.3 189.4,-40.2 251.5,-18.1 v 0 c 4.9,1.8 9.6,3.8 14.2,6.1 v 0 c 51.5,26 74.9,84.1 45.2,142.9 v 0 c -15,29.9 -43.8,60.1 -73.9,91.7 v 0 c -34.8,36.5 -71.5,74.8 -88.6,115.9 v 0 c -31.9,76.5 4.4,161.3 39.6,244.2 0.7,1.8 2.8,2.7 4.7,1.9 1.8,-0.8 2.7,-2.9 1.9,-4.7" /></g><g
         transform="scale(1.60603)"
         id="g130"><path
           id="path132"
           style="fill:none;stroke:#d67d52;stroke-width:79.69960022;stroke-linecap:round;stroke-linejoin:round;stroke-miterlimit:10;stroke-dasharray:none;stroke-opacity:1"
           d="m 12811,16294.5 v 0 c -35.6,-83.7 -70.1,-165.5 -39.5,-238.7 v 0 c 16.5,-39.5 52,-76.8 87.1,-113.6 v 0 c 29.9,-31.4 59.5,-62.4 75.2,-93.4 v 0 c 31.5,-62.6 6.5,-124.9 -48.5,-152.6 v 0 c -4.8,-2.4 -9.8,-4.6 -15,-6.5 v 0 c -64.4,-23 -160.8,-2.3 -255.4,17.9 -2,0.4 -3.2,2.3 -2.8,4.2 0.4,2 2.4,3.3 4.3,2.8 v 0 c 95.6,-20.3 189.4,-40.2 251.5,-18.1 v 0 c 4.9,1.8 9.6,3.8 14.2,6.1 v 0 c 51.5,26 74.9,84.1 45.2,142.9 v 0 c -15,29.9 -43.8,60.1 -73.9,91.7 v 0 c -34.8,36.5 -71.5,74.8 -88.6,115.9 v 0 c -31.9,76.5 4.4,161.3 39.6,244.2 0.7,1.8 2.8,2.7 4.7,1.9 1.8,-0.8 2.7,-2.9 1.9,-4.7 z" /></g><g
         transform="scale(1.55038)"
         id="g134"><path
           id="path136"
           style="fill:#d67d52;fill-opacity:1;fill-rule:nonzero;stroke:none"
           d="m 12226,16230.2 v 0 c 105.9,34.5 213.6,69.8 294.3,43.7 v 0 c 7.1,-2.3 13.9,-5.1 20.5,-8.3 v 0 c 79.8,-39.1 126.2,-151.4 163.1,-240 v 0 c 1.4,-3.8 2.3,-5.7 3.8,-9.4 v 0 c 37.9,-91 66.6,-154 119.8,-187.4 v 0 c 13.1,-8.3 27.9,-14.8 43.8,-20 v 0 c 48.6,-15.6 107.9,-18.7 168,-21.9 2,-0.1 3.6,-1.9 3.4,-3.9 0,-2 -1.8,-3.6 -3.8,-3.5 v 0 c -59.8,3.1 -120.2,6.2 -169.9,22.2 v 0 c -16.4,5.4 -31.7,12.1 -45.5,20.8 v 0 c -55.5,34.9 -85.1,100.4 -122.7,190.8 v 0 c -1.5,3.5 -2.4,5.8 -3.9,9.3 v 0 c -37.2,89.8 -82.7,198.7 -159.3,236.3 v 0 c -6.4,3.1 -12.8,5.8 -19.5,7.9 v 0 c -78,25.2 -182.9,-8.9 -289.7,-43.7 -2,-0.6 -4.1,0.5 -4.8,2.4 -0.6,2 0.5,4.1 2.4,4.7" /></g><g
         transform="scale(1.55038)"
         id="g138"><path
           id="path140"
           style="fill:none;stroke:#d67d52;stroke-width:82.56040192;stroke-linecap:round;stroke-linejoin:round;stroke-miterlimit:10;stroke-dasharray:none;stroke-opacity:1"
           d="m 12226,16230.2 v 0 c 105.9,34.5 213.6,69.8 294.3,43.7 v 0 c 7.1,-2.3 13.9,-5.1 20.5,-8.3 v 0 c 79.8,-39.1 126.2,-151.4 163.1,-240 v 0 c 1.4,-3.8 2.3,-5.7 3.8,-9.4 v 0 c 37.9,-91 66.6,-154 119.8,-187.4 v 0 c 13.1,-8.3 27.9,-14.8 43.8,-20 v 0 c 48.6,-15.6 107.9,-18.7 168,-21.9 2,-0.1 3.6,-1.9 3.4,-3.9 0,-2 -1.8,-3.6 -3.8,-3.5 v 0 c -59.8,3.1 -120.2,6.2 -169.9,22.2 v 0 c -16.4,5.4 -31.7,12.1 -45.5,20.8 v 0 c -55.5,34.9 -85.1,100.4 -122.7,190.8 v 0 c -1.5,3.5 -2.4,5.8 -3.9,9.3 v 0 c -37.2,89.8 -82.7,198.7 -159.3,236.3 v 0 c -6.4,3.1 -12.8,5.8 -19.5,7.9 v 0 c -78,25.2 -182.9,-8.9 -289.7,-43.7 -2,-0.6 -4.1,0.5 -4.8,2.4 -0.6,2 0.5,4.1 2.4,4.7 z" /></g><g
         transform="scale(1.74472)"
         id="g142"><path
           id="path144"
           style="fill:#fab833;fill-opacity:1;fill-rule:nonzero;stroke:none"
           d="m 14923.8,8354.36 c 0,-57.66 -3.1,-113.54 -9.8,-167.19 -37,-297.01 -181.8,-526.1 -382.7,-718.68 -200.8,-192.7 -457.9,-349.06 -719.1,-500.83 -30.1,-17.42 -60.6,-35.02 -90.8,-52.44 -29.5,-17.03 -61.1,-35.37 -90.5,-52.45 -45.8,-26.59 -90.9,-53.02 -136.5,-79.67 -266.2,-156.01 -529.7,-310.25 -815.7,-433.3 -285.8,-123.12 -594.3,-214.88 -950.8,-246.06 -93.4,-8.2 -190.2,-12.09 -289.1,-12.09 -719.8,0 -1554.62,210.69 -2071.84,558.82 -60.35,40.64 -116.47,83.17 -168.57,127.19 -52.04,44.01 -100.3,89.58 -144.95,136.3 -158.36,165.52 -272.48,345.55 -360.4,523.92 -7.97,16.11 -15.71,32.33 -23.21,48.49 -75.83,161.86 -131.31,321.25 -180.09,466.15 -5.05,14.96 -10.03,29.69 -14.96,44.3 -4.99,14.85 -9.34,27.86 -14.21,42.36 -19.72,58.52 -38.63,113.77 -56.86,166.44 -18.17,52.62 -35.71,102.77 -52.56,151.03 -43.39,124.44 -81.79,234.48 -114.75,337.59 -32.9,103.17 -60.29,199.35 -81.61,295.81 -21.1,95.37 -36.29,191.21 -48.38,290.99 -12.03,99.67 -20.92,203.47 -29.35,314.72 -3.2,42.93 -6.53,88.33 -9.85,133.84 -3.44,48.31 -7.22,99.55 -11.18,151.31 -13.36,176.39 -30.32,373.49 -79.21,576.99 -49.01,203.4 -129.93,413.2 -271.45,615.2 -30.55,43.6 -63.91,86.9 -99.67,129.7 -35.88,42.9 -74.11,85.4 -114.29,127.3 -145.81,152.4 -317.47,298.6 -494.63,436 -5.91,4.6 -11.76,9 -17.66,13.6 -171.49,132.2 -347.45,256.1 -509.31,369.4 l -57.94,40.5 c -198.49,138.8 -375.25,262.5 -537.85,388.4 -162.61,126.1 -310.99,254.3 -452.49,402.2 -1.74,1.8 -2.48,2.5 -4.22,4.4 -148.84,156.1 -290.15,334.2 -415.88,513.2 -125.64,178.8 -235.69,358.4 -322.16,517.6 -110.05,202.9 -182.04,373.1 -182.04,540.2 0,95.1 23.29,189.4 76.12,287.9 72.63,135.7 201.02,279.5 360.58,416.8 159.39,137.2 349.95,267.7 546.75,376.4 196.89,108.8 400.21,195.6 611.14,268.2 210.8,72.6 429.35,130.9 656.66,182.3 10.95,2.5 21.84,5 32.79,7.4 97.72,21.8 196.94,42.2 296.21,61.1 121.22,23.2 242.33,44.2 360.63,62.3 24.59,3.8 49,7.4 73.19,10.9 h 0.12 c 111.7,16.4 220.26,30.2 323.54,41.1 81.05,8.5 158.82,15.3 232.07,20.2 105.29,6.9 201.3,9.8 290.65,9.8 227.95,0 412.68,-18.9 597.23,-37.7 1.15,-0.1 2.13,-0.8 2.7,-1.7 32.55,-62.2 65.28,-124.6 92.05,-185.2 26.88,-60.6 47.86,-119.4 56.97,-174.6 3.96,-23.8 5.67,-46.9 5.67,-69.5 0,-81.9 -22.75,-156.4 -45.39,-230.6 l -0.34,-1 c -0.23,-0.7 -0.69,-1.4 -1.32,-1.8 h -0.06 c -84.77,-57.7 -169.48,-115.5 -256.54,-171.8 -87.12,-56.3 -176.42,-111.1 -270.31,-163 -43.96,-24.3 -88.95,-48 -134.75,-71.1 -52.1,-26.3 -105.17,-52 -159.16,-77.1 -55.71,-26 -112.28,-51.5 -169.66,-76.7 -47.23,-20.7 -94.91,-41.3 -143,-61.7 -63.45,-27 -127.53,-53.9 -191.21,-80 -42.93,-17.6 -85.63,-34.8 -127.81,-51.4 -67.98,-26.8 -134.46,-52 -197.91,-74.7 -34.28,-12.3 -67.69,-23.8 -99.96,-34.4 -92.28,-30.5 -175.73,-54 -254.77,-73.9 -78.92,-19.8 -153.61,-36.2 -228.17,-52.6 h -0.06 l -427.52,-88.6 c 138.24,-75.3 276.66,-150.8 406.14,-231.5 36.05,-22.5 71.53,-45.4 107.92,-69.4 43.74,-28.9 88.67,-59.3 138.19,-92.8 30.04,-20.3 61.56,-41.6 95.38,-64.4 33.87,-22.7 69.92,-46.7 108.78,-72.4 97.67,-64.6 213.68,-139.6 334.15,-216.8 120.54,-77.2 245.72,-156.6 361.73,-230.3 l 0.17,-0.1 54.9,-34.8 c 104.2,-66.1 201.3,-127.7 293.86,-187 92.63,-59.4 180.66,-116.6 267.04,-174.1 14.5,-9.6 28.77,-19 43.1,-28.7 86.09,-57.5 169.94,-113.4 250.01,-158.5 79.96,-44.9 156.13,-79 226.97,-92.6 25.85,-5 50.96,-7.3 75.54,-7.3 49.64,0 96.75,9.2 142.61,23.8 65.85,21.1 128.96,53.5 192.29,86.2 1.49,0.7 3.33,0.3 4.24,-1.1 66.03,-96.1 131.94,-192.2 202.27,-286.7 39.55,-53.2 80.36,-105.6 125.86,-153.3 35.48,-37 73.83,-71 116.47,-100 89.62,-60.8 198.92,-99.2 314.02,-99.2 10,0 20.2,0.2 30.5,0.9 63.1,3.7 127.5,19.3 188.8,44.7 61.4,25.2 119.6,60.2 170.1,102.8 50.6,42.6 93.6,92.8 132.6,147.1 39.2,54.1 74.5,112.1 110,170.4 0.4,0.5 0.9,1.1 1.6,1.3 32.9,12.3 65.9,24.6 115,36 9.1,2.2 18.8,4.3 29.2,6.4 45.2,8.9 103.2,17.2 182.4,24.5 44.5,4 95.6,7.7 151.1,11.1 46.4,2.9 95.8,5.7 147,8.3 50.9,2.7 103.6,5.2 156.7,7.9 54.1,2.6 108.5,5.3 161.7,8.2 53.1,2.7 105.1,5.6 154.5,8.7 9.7,0.5 21.5,1.3 31,1.9 61.7,4 119.6,7.7 175.1,7.7 158.5,0 299.7,-30.1 466.1,-169.7 37.5,-31.5 76.3,-68.6 116,-110.1 96,-100.3 197.3,-226.6 298.9,-362.7 101.7,-136 203.5,-281.8 300.4,-421.2 l 23.7,-34.2 23.2,-33.5 19.3,-27.8 c 118.4,-170.4 228.8,-329.2 349.8,-524.1 120.9,-194.8 252.4,-425.8 413.1,-740.3 302.9,-593.23 710,-1485.41 710,-2139.84" /></g><g
         transform="scale(1.67326)"
         id="g146"><path
           id="path148"
           style="fill:#df932a;fill-opacity:1;fill-rule:nonzero;stroke:none"
           d="m 10252.2,7607.35 c 70.4,-33.41 995.5,-127.72 1978,704.79 982.5,832.5 298.1,1977.36 1329.6,2403.36 1031.6,426.1 2263.5,-243.8 2263.5,-243.8 L 16300,9133.89 13620,7211.83 11451.5,7069.78 10252.2,7607.35" /></g><g
         transform="scale(1.24613)"
         id="g150"><path
           id="path152"
           style="fill:#7998d5;fill-opacity:1;fill-rule:nonzero;stroke:none"
           d="m 16300,12222.4 -1570.2,291.7 v 346.4 l 1511.8,-296.8 58.4,-341.3" /></g><g
         transform="scale(1.27393)"
         id="g154"><path
           id="path156"
           style="fill:#cbd7f1;fill-opacity:1;fill-rule:nonzero;stroke:none"
           d="m 15944.2,12267.8 -1535.9,312 1891.7,390.8 -134.4,-438.2 -221.4,-264.6" /></g><g
         transform="scale(1.54837)"
         id="g158"><path
           id="path160"
           style="fill:#040606;fill-opacity:1;fill-rule:nonzero;stroke:none"
           d="m 16299.6,6917.58 v 0 0 c -0.4,-2 -2.4,-3.36 -4.4,-2.91 -2,0.39 -3.3,2.39 -2.9,4.39 v 0 0 c 0.4,2.07 2.4,3.36 4.4,2.91 2,-0.39 3.3,-2.39 2.9,-4.39" /></g><g
         transform="scale(1.79431)"
         id="g162"><path
           id="path164"
           style="fill:#4463b7;fill-opacity:1;fill-rule:nonzero;stroke:none"
           d="m 14784.4,8851.83 -1.4,-1.62 -2,0.62 z m 908.2,-269.85 -1.6,0.44 c -0.2,0.45 -0.4,1.01 -0.6,1.45 z m 604.9,-1975.42 c -14.6,293.32 -93.4,614.17 -204.3,948.78 -110.9,334.62 -253.9,682.88 -396.8,1031.04 -0.4,0.89 -1.1,1.56 -2,1.84 l -911.6,268.79 c -1.2,0.34 -2.6,0 -3.3,-1 l -3.3,-3.73 c -808.4,-950.06 -1615.5,-1896.61 -2521.3,-1896.61 -16.6,0 -33.4,0.39 -50.1,1 -74.9,2.95 -150.6,12.37 -226.7,27.36 -236.4,46.76 -478,147.25 -719.8,273.31 -242,126.13 -484.1,277.71 -721.7,426.52 -198,123.95 -392.7,245.94 -581.56,349.55 -188.87,103.55 -371.67,188.71 -545.72,238.81 -42.53,12.21 -84.55,22.35 -126.07,30.6 -90.45,17.83 -178.17,26.19 -263.33,26.19 -641.7,0 -1130.86,-477.34 -1420.16,-988.46 -253.97,-448.7 -354.29,-924.14 -354.29,-1339.96 0,-149.64 13.04,-291.53 36.51,-421.72 44.42,-246.11 126.23,-450.2 232.01,-637.46 105.78,-187.26 235.3,-357.69 375.24,-536.37 139.72,-178.5 290.08,-365.6 467.7,-524.65 177.73,-159.12 382.71,-290.09 631.78,-356.36 29.76,-7.91 60.25,-14.99 91.29,-21.06 122.89,-24.25 254.97,-34.78 393.63,-34.78 411.25,0 880.57,92.57 1339.17,193.73 158.5,34.94 315.2,70.89 470,106.27 149.9,34.34 297.7,68.11 442,99.93 160.1,35.34 316.1,68.22 466.5,96.7 150.3,28.42 295,52.5 432.3,70.05 86.8,11.15 170.8,19.73 252.8,26.98 81.9,7.19 162,13.09 241.1,18.95 75.2,5.57 149.5,11.09 223.8,17.61 74.3,6.46 148.5,13.99 223.3,23.63 85,10.87 170.7,24.41 258.7,42.24 87.9,17.73 56.3,198.69 149.6,226.5 261.8,78.19 176.9,631.22 699.6,841.05 293.4,117.81 1627.5,733.87 1627.5,1275.7 0,32.6 -0.8,65.7 -2.5,99.03" /></g><g
         transform="scale(1.87545)"
         id="g166"><path
           id="path168"
           style="fill:#4463b7;fill-opacity:1;fill-rule:nonzero;stroke:none"
           d="m 11850.8,4578.89 -1.6,3.95 c 0.9,-0.43 1.7,-0.86 2.6,-1.28 -0.3,-0.86 -0.7,-1.82 -1,-2.67 z m 4315.8,3001.46 c -64.2,90.7 -150.3,162.95 -250.5,213.98 -100.1,51.02 -214.4,80.88 -334.8,86.96 -44.3,2.13 -89.5,1.07 -135.2,-3.25 -146.7,-14.24 -297.9,-63.24 -451.8,-130.96 -153.8,-67.77 -310.4,-154.15 -467.7,-243.14 -157.4,-89.09 -315.7,-180.81 -481.5,-288.46 -165.8,-107.76 -339.1,-231.36 -526.5,-384.33 -187.3,-152.87 -388.7,-335.12 -579.2,-528.36 -190.5,-193.28 -370.3,-397.61 -514.5,-594.95 -288.4,-394.67 -434.2,-760.82 -579.8,-1126.66 -0.6,-1.49 0,-3.2 1.4,-3.89 93.9,-46.17 187.7,-92.24 300.9,-128.98 113.2,-36.79 245.7,-64.2 416.9,-72.73 29.8,-1.44 60.9,-2.35 93.2,-2.61 7.4,-0.11 15,-0.11 22.4,-0.11 402.1,0 990,94.11 1491.8,335.81 255.6,123.12 488.7,284.52 702,460.42 213.3,175.85 406.8,366.16 582.8,547.29 176,181.02 335,352.92 465.7,519.87 130.8,166.89 233.6,328.72 297.3,489.64 54.6,137.62 80.5,274.55 80.5,403 0,171.9 -46.5,328.56 -133.4,451.46" /></g><g
         transform="scale(1.69067)"
         id="g170"><path
           id="path172"
           style="fill:#192543;fill-opacity:1;fill-rule:nonzero;stroke:none"
           d="m 13289.2,5881.26 c -4.6,0 -9.3,0.77 -13.9,2.43 -22.2,7.69 -34,31.99 -26.3,54.18 134.4,385.7 677.8,924.06 1615.2,1600.13 694.4,500.86 1358.8,895.5 1365.5,899.46 20.2,12.01 46.3,5.32 58.3,-14.97 12,-20.22 5.3,-46.31 -14.9,-58.31 -26.3,-15.62 -2635.5,-1569.67 -2943.6,-2454.29 -6.1,-17.57 -22.6,-28.63 -40.3,-28.63" /></g><g
         transform="scale(1.48681)"
         id="g174"><path
           id="path176"
           style="fill:#f89b72;fill-opacity:1;fill-rule:nonzero;stroke:none"
           d="m 16239.2,9719.27 c 0.3,1.07 0.7,2.28 1,3.36 1.2,-0.2 2.4,-0.54 3.6,-0.74 z m -208,548.53 c -11.2,3.5 -22.8,6.9 -34.7,10.1 -290.5,78.6 -823.5,91.3 -1403,91.3 -139.3,0 -281.2,-0.7 -423,-1.4 -0.4,0 -0.7,0 -1,-0.2 -132.7,-34.5 -263.8,-68.5 -335.5,-68.5 -12.9,0 -23.8,1.1 -32.5,3.4 -14.3,3.9 -21.7,10.8 -21.7,22.2 0,2.9 0.4,6 1.5,9.5 0.4,1.3 0.7,2.6 1.2,4 6.5,18.3 24.6,43.4 49.2,72.9 24.7,29.5 56,63.3 88.8,98.9 38.9,42.1 80.1,86.4 114.2,128.3 34.3,41.9 61.7,81.6 73.2,114 1.4,4.2 2.5,8.1 3.5,11.9 1.7,7.2 2.6,13.9 2.6,20.2 0,44.5 -40.9,69.8 -100.3,85.9 -30.7,8.3 -66.9,14.3 -106.5,19.3 -39.7,4.9 -82.5,8.8 -126.3,12.8 -23.8,2.2 -48.1,4.3 -72.2,6.7 -29.9,3 -59.8,6.2 -89.5,9.5 -29.3,3.2 -58.4,6.5 -87.1,9.3 -57.2,5.7 -113.3,9.9 -166.9,9.9 -84.6,0 -163.1,-10.6 -231,-42.5 -77.5,-36.5 -140.9,-100.8 -186.3,-181.9 -45.4,-81.1 -72.9,-179.2 -78.1,-283.4 -0.7,-12.7 -1,-25.6 -1,-38.5 0,-198.4 76.5,-412.95 213.3,-540.61 35,-32.69 74,-59.86 116.6,-81.92 42.5,-22.13 88.6,-39.48 137.8,-52.73 52.9,-14.26 109.5,-24.08 169.3,-30.4 59.7,-6.26 122.6,-9.08 188.3,-9.49 6.2,0 12.6,-0.13 18.8,-0.13 248.9,0 535.1,32.96 793.2,81.05 57,10.62 112.7,21.92 167.7,33.15 54,11.1 107.2,21.93 160.8,31.82 137.3,25.62 275.7,45.13 427.6,45.13 9.3,0 18.6,-0.13 28,-0.2 142.2,-2.29 296.6,-21.86 457.2,-50.31 160.7,-28.38 327.6,-65.38 494.8,-102.5 1.8,-0.48 3.9,0.74 4.5,2.69 26.5,87.77 53.3,176.21 53.3,257.73 0,121.62 -59.7,227.82 -268.8,293.02" /></g><g
         transform="scale(1.31075)"
         id="g178"><path
           id="path180"
           style="fill:#df932a;fill-opacity:1;fill-rule:nonzero;stroke:none"
           d="m 15853.7,10887.1 c -358.5,0 -822.5,57.7 -1005.2,207.3 -264.5,216.8 -304.4,669.3 -305.9,688.5 -0.1,0.4 -0.1,0.9 -0.1,1.4 -0.8,14.1 -16.4,348.4 262.4,582.9 280.1,235.6 956.7,46.1 985.4,37.9 29.1,-8.4 46,-38.7 37.7,-67.9 -8.3,-29.2 -38.7,-46.1 -67.9,-37.7 -179.8,51.2 -689,148 -884.5,-16.4 -231.9,-195 -224,-476.8 -223.4,-492 1.8,-20.2 42.3,-428.4 266,-611.7 224.4,-183.9 1056.9,-220.6 1305.8,-150.6 29.2,8.3 59.6,-8.8 67.8,-38 8.2,-29.2 -8.8,-59.5 -38,-67.7 -80.7,-22.8 -228.4,-36 -400.1,-36" /></g><g
         transform="scale(1.84161)"
         id="g182"><path
           id="path184"
           style="fill:#fab833;fill-opacity:1;fill-rule:nonzero;stroke:none"
           d="m 12347.7,7815.89 -2,4.34 c 1.2,-0.38 2.5,-0.65 3.7,-0.97 -0.6,-1.14 -1.2,-2.28 -1.7,-3.37 z m 44,599.37 0.7,2.77 c 0.1,-0.49 0.3,-1.04 0.4,-1.58 -0.4,-0.43 -0.7,-0.76 -1.1,-1.19 z m 3743.6,237.51 c -7.8,4.29 -16,8.36 -24.5,12.27 -47.8,22.32 -106,40.13 -171.5,56.14 -65.5,15.97 -138.2,30.14 -214.9,45.07 -98.2,19.12 -203,39.43 -307.9,66.58 -104.9,27.15 -209.9,60.97 -308.7,107.02 -33.8,15.8 -67,33.07 -99.2,52.02 -32.1,18.95 -63.2,39.53 -93.1,61.96 -69.5,52.29 -132.1,114.85 -190.4,181.47 -58.5,66.68 -112.6,137.54 -165.4,206.56 -47.3,61.9 -93.5,122.39 -140.7,176.97 -47,54.57 -95,103.11 -145.7,141.34 -71.5,53.76 -148.8,87.04 -237.2,87.04 -8.2,0 -16.5,-0.27 -25,-0.87 -9.7,-0.7 -19.6,-1.73 -29.6,-3.2 -194.7,-28.94 -442.9,-214.32 -717.6,-477.84 -274.7,-263.52 -576,-604.96 -877,-945.97 -0.6,-0.71 -0.9,-1.79 -0.7,-2.77 24.6,-98.34 48.9,-196.19 48.9,-286.54 0,-11.3 -0.4,-22.48 -1.2,-33.61 -3.7,-49.69 -16.1,-96.71 -32.7,-142.6 -16.8,-45.83 -37.9,-90.41 -59.1,-135.26 -0.4,-0.87 -0.4,-1.79 0,-2.66 0.4,-0.87 1.1,-1.52 2.1,-1.74 71.5,-18.24 143,-36.49 217.3,-56.69 74.3,-20.2 151.4,-42.3 234.1,-68.36 82.7,-26.07 171.1,-56.04 264.3,-89.65 93.3,-33.56 191.5,-70.81 293.9,-111.37 17.9,-7.12 36.3,-14.45 54.5,-21.72 11,-4.35 22,-8.8 33.1,-13.14 7.7,-3.1 15.4,-6.14 23.2,-9.18 87,-34.53 177.9,-69.45 274.2,-100.02 10.3,-3.31 20.6,-6.52 31.1,-9.67 87,-26.49 178.5,-49.14 275.7,-64.78 38.2,-6.19 77.4,-11.29 117.4,-15.2 v 0 c 73.7,-7.39 149.8,-11.03 227.3,-11.03 48.1,0 96.6,1.36 145.4,4.24 10.7,0.55 21.5,1.19 32.3,2.01 56.9,3.91 114.2,9.72 171.4,17.43 57.1,7.66 114.3,17.21 170.7,28.62 146.5,29.43 289.6,71.29 424.1,122.23 134.4,50.98 260.2,111.04 372.2,177.07 112.1,65.92 210.5,137.76 294.6,218.67 84.1,80.91 153.9,170.72 208.9,272.53 51.4,95.08 90.1,201.13 90.1,299.69 0,105.28 -44.2,201.88 -164.7,266.94" /></g><g
         transform="scale(1.61182)"
         id="g186"><path
           id="path188"
           style="fill:#f89b72;fill-opacity:1;fill-rule:nonzero;stroke:none"
           d="m 16292.2,4717.17 0.5,2.85 2.2,-3.97 z m -96.4,-550.81 0.4,2.48 2.5,0.37 z m -507.3,-76.19 0.9,0.25 1,-0.5 z m -790,352.83 -1.9,4.53 3.2,-1.37 z m 293.7,731.6 -1.4,-3.41 -3.3,1.42 z m 1105.4,-451.85 -1107.3,456.5 c -0.8,0.37 -1.8,0.37 -2.8,0 -0.8,-0.37 -1.5,-1.11 -2,-1.98 l -293.7,-731.6 c -0.8,-1.8 0.1,-3.85 1.8,-4.65 l 793.9,-357.68 c 0.6,-0.3 1.3,-0.37 2,-0.3 l 510.4,79.1 c 1.6,0.25 2.8,1.43 2.9,2.91 l 97,553.73 c 0.2,1.67 -0.7,3.22 -2.2,3.97" /></g><g
         transform="scale(1.81116)"
         id="g190"><path
           id="path192"
           style="fill:#192543;fill-opacity:1;fill-rule:nonzero;stroke:none"
           d="m 13848.8,3598.69 -0.8,-0.66 0.7,4.41 c 0.7,-0.88 1.3,-1.65 1.8,-2.54 -0.5,-0.44 -1.1,-0.77 -1.7,-1.21 z m 216.2,809.54 2.6,4.58 c 0.7,-1.38 1.5,-2.93 2.2,-4.31 z m 2212,42.95 c -61,162.88 -248.3,242.39 -517.4,242.39 -27.1,0 -54.9,-0.78 -83.6,-2.38 -80.4,-4.52 -167.1,-15.29 -256.3,-29.98 -89.3,-14.57 -181,-33.01 -271.7,-52.78 -91,-19.88 -180.8,-41.08 -265.9,-61.18 -76.2,-17.99 -148.4,-35.06 -214,-49.36 -142.2,-31.03 -253.1,-49.19 -348.5,-60.95 -95.5,-11.76 -175.2,-17.06 -255.1,-22.36 -1,-0.06 -2,-0.61 -2.5,-1.6 -0.6,-0.89 -0.6,-1.99 -0.1,-2.99 65.3,-131.9 130,-262.54 130,-379.42 0,-24.46 -2.8,-48.26 -9,-71.39 -0.7,-2.27 -1.3,-4.59 -2,-6.79 -19.6,-65.27 -66.3,-125.12 -126.7,-182.26 -60.4,-57.15 -134.6,-111.59 -209.1,-166.36 l -0.9,-0.61 c -1.4,-0.94 -1.7,-2.98 -0.7,-4.42 9.6,-13.58 19.3,-27.11 42,-45.77 22.7,-18.55 58.4,-42.18 120.1,-76.03 61.7,-33.73 149.5,-77.85 256.4,-118.81 106.8,-41.08 232.7,-79.07 370.5,-100.82 91.6,-14.41 188.4,-21.65 286.6,-21.65 197.4,0 400.4,29.27 577.1,88.01 132.4,44.01 249.9,104.52 352.7,180.99 102.7,76.42 190.5,168.73 263.4,276.45 33.3,49.25 63.5,101.76 89.5,155.54 25.9,53.72 47.6,108.77 63.9,163.16 21.9,72.88 34.3,144.82 34.3,211.07 0,50.69 -7.3,98.23 -23,140.3" /></g><g
         transform="scale(1.43728)"
         id="g194"><path
           id="path196"
           style="fill:#192543;fill-opacity:1;fill-rule:nonzero;stroke:none"
           d="m 16300,4952.26 c 0,-21.5 -2.9,-42.58 -8.5,-61.36 -34.5,-116.75 -99.4,-228.91 -183.5,-324.36 -84,-95.53 -187,-174.71 -297.6,-225.57 -20.9,-9.67 -42.2,-18.37 -63.8,-26.37 -52.3,-19.27 -106.1,-34.09 -160.5,-46.55 -54.6,-12.45 -109.8,-22.68 -165,-32.97 -55.4,-10.23 -110.7,-20.6 -165.2,-33.05 -54.6,-12.6 -108.3,-27.28 -160.5,-46.55 -64.6,-23.93 -128.7,-51.07 -192.5,-80.01 -63.9,-28.94 -127.4,-59.7 -191.1,-90.31 -134.4,-64.64 -269.1,-129.69 -406.8,-178.74 -137.6,-49.12 -278.3,-82.38 -424.6,-83.84 h -9.1 c -355.7,0 -746.7,211.93 -934.3,513.54 -24.3,38.96 -44.9,83.14 -60.5,130.04 -21.1,63.17 -33.5,131.43 -33.5,197.66 0,80.85 18.3,158.77 60.8,221.53 98.9,146.04 243.4,259.03 406.5,342.87 163.1,83.98 344.8,138.74 518.2,168.44 81.9,14.06 165.1,19.07 248.5,19.07 88.1,0 176.2,-5.57 263.5,-11.48 47.4,-3.27 118.6,-8.28 177.8,-12.39 57.3,-3.96 103.6,-7.23 106.7,-7.44 -0.5,0 266.6,-13.15 399.3,-19.07 29.3,-1.32 59.6,-2.64 89,-3.96 139.7,-6.12 279.9,-12.18 419.6,-22.75 139.6,-10.44 278.7,-25.26 416.8,-48.85 6.9,-1.25 13.6,-2.36 20.6,-3.54 45.3,-7.58 92,-15.52 136.8,-27.83 44.9,-12.25 88,-29.16 126.5,-54.76 13,-8.7 24,-20.18 33.1,-33.33 9,-13.22 16.3,-28.17 21.5,-43.97 7.9,-23.44 11.8,-49.19 11.8,-74.1" /></g><g
         transform="scale(1.70943)"
         id="g198"><path
           id="path200"
           style="fill:#f89b72;fill-opacity:1;fill-rule:nonzero;stroke:none"
           d="m 15731.6,16300 -2.7,-3.9 c 1,0.2 2.2,0.5 3.2,0.7 l -0.5,3.2" /></g><g
         transform="scale(2.01159)"
         id="g202"><path
           id="path204"
           style="fill:#f89b72;fill-opacity:1;fill-rule:nonzero;stroke:none"
           d="m 13470.1,13095.3 -2.4,-3.3 -0.4,2.9 z m -487.9,-72.5 2.7,0.4 c 0.2,-0.9 0.4,-1.9 0.5,-2.8 z m -256.6,1216.4 2.3,3.4 0.7,-2.9 c -1,-0.1 -2,-0.4 -3,-0.5 z m -58.9,749.9 c 1.3,1.1 2.7,2.3 3.9,3.4 l 0.9,-5 z m -157.3,882.9 1.2,2.9 0.3,-1.8 c -0.5,-0.4 -1,-0.7 -1.5,-1.1 z m 2199.7,-547.9 c -24.7,143.4 -62.7,266 -124,375.1 -61.5,109.1 -146.2,204.5 -264.6,293.4 -85,63.8 -187.2,124.1 -298.4,174.1 -111.2,50.1 -231.4,89.9 -352.2,112.5 -71.4,13.4 -143,20.8 -213.1,20.8 -23.1,0 -46,-0.8 -68.7,-2.5 -162.6,-11.9 -313.6,-67.5 -458.6,-145 -145.2,-77.4 -284.4,-176.7 -423.4,-275.8 -0.9,-0.6 -1.4,-1.8 -1.2,-2.9 l 160.9,-887.3 c 0.2,-1 0.9,-1.9 2,-2.2 0.9,-0.4 2,-0.1 2.8,0.5 67.6,60.2 135.2,120.3 217.9,172.1 82.6,51.9 180.3,95.7 308,123.2 90.9,19.5 197,30.8 302.2,30.8 75.6,0 150.9,-5.9 219.8,-18.7 52.5,-9.9 101.1,-23.8 143.4,-42.3 42.2,-18.4 78,-41.4 104.9,-69.3 42.8,-44.7 63.1,-102.6 63.1,-166.5 0,-115.8 -66.4,-251.6 -184.5,-364.9 -25.5,-24.5 -53.4,-47.9 -83.6,-69.8 -123.1,-89.5 -283.4,-153.6 -462.4,-205.1 -179,-51.6 -376.8,-90.5 -574.9,-129.5 -0.7,-0.2 -1.4,-0.7 -1.8,-1.3 -0.4,-0.6 -0.5,-1.4 -0.4,-2.2 l 2.1,-8.8 c 20.2,-86.6 40.3,-173.4 60.7,-263.6 20.4,-90 41.1,-183.5 62.2,-283.7 21.4,-101.8 43.3,-210.5 65.5,-322.6 22.1,-112.1 44.5,-227.7 67,-343.2 0.2,-1.5 1.7,-2.5 3.1,-2.3 l 488.1,72.5 c 1.5,0.2 2.7,1.6 2.4,3.2 l -104.4,756 c -0.9,-0.1 -1.9,-0.4 -2.7,-0.5 l 2.3,3.3 0.4,-2.8 c 86.6,18 173.2,36 266.7,58.7 94.5,23 195.9,50.8 311.3,88.3 115.3,37.4 244.9,84.5 363.7,152.6 118.9,68 227,157 299.7,278 92.9,154.7 127.6,361.5 127.6,565.4 0,115 -11.1,229.1 -28.9,332.3" /></g><g
         transform="scale(1.67844)"
         id="g206"><path
           id="path208"
           style="fill:#f89b72;fill-opacity:1;fill-rule:nonzero;stroke:none"
           d="m 16300,14652.9 c 0,-76.8 -14.4,-153.5 -53.3,-216.6 -18.7,-30.3 -44.8,-55.8 -74,-77.1 -29.4,-21.4 -62,-38.9 -94.2,-53.4 -62.8,-28.3 -132.5,-49.5 -201.8,-49.5 -2.8,0 -5.5,0 -8.4,0.1 -15.4,0.4 -31,1.8 -46.7,4.1 -59.8,9 -120.4,31.7 -173.5,64.9 -53,33.2 -98.5,77.1 -128.1,128.2 -37.2,64.5 -54,142.1 -54,219.4 0,48.8 6.7,97.6 19.3,142.8 16.6,59.8 55.1,111.8 103.6,155.1 48.3,43.4 106.5,78 162.7,103 34.3,15.3 70.6,28.1 108,33.6 5.4,0.9 13.5,1.5 20.3,2 6.8,0.5 12.2,0.8 12.2,0.8 0.1,0 0.3,0 0.4,-0.2 0,0 6.4,-0.4 15.5,-1.3 9.2,-0.8 21,-2.1 31.8,-3.7 7,-1 13.4,-2.2 18.6,-3.4 36.7,-9.1 72.1,-24 105.4,-41.8 52.4,-28 103.2,-68.1 143.4,-116 40.3,-47.8 70.1,-103.4 80.7,-162.2 7.5,-41.3 12.1,-85 12.1,-128.8" /></g><g
         transform="scale(1.46951)"
         id="g210"><path
           id="path212"
           style="fill:#4463b7;fill-opacity:1;fill-rule:nonzero;stroke:none"
           d="m 16299.5,16264.9 -2.2,-3.9 c 0.9,0.3 1.8,0.6 2.7,0.8 l -0.5,3.1" /></g><g
         transform="scale(1.57844)"
         id="g214"><path
           id="path216"
           style="fill:#4463b7;fill-opacity:1;fill-rule:nonzero;stroke:none"
           d="m 15257.2,14708 -2.5,-3.6 -0.6,3 z m -298.8,-54.7 3.1,0.6 0.5,-3.1 z m -124.8,693.2 2,3.5 0.5,-2.7 c -0.8,-0.2 -1.7,-0.5 -2.5,-0.8 z m -104.7,422.2 c 1.1,0.5 2.3,0.8 3.4,1.2 l 0.6,-3.6 z m -73.5,437.7 h -0.1 l 2.2,3.4 0.4,-2.6 c -0.9,-0.3 -1.6,-0.5 -2.5,-0.8 z m 1203.1,-302 c -11.8,80.7 -48.2,150.2 -101.5,207.2 -53.2,56.9 -123.4,101.1 -202.5,131.4 -5.4,2.1 -10.9,4.2 -16.4,6.1 -107.4,38 -230.2,50.9 -345.1,50.9 -62.6,0 -122.9,-3.9 -177,-9.6 -76.8,-8 -141.3,-19.8 -199.7,-33.4 -58.3,-13.7 -110.5,-29.2 -162.7,-44.6 -1.5,-0.5 -2.4,-2 -2.2,-3.6 l 75.4,-443.5 c 0.2,-1 0.7,-1.7 1.5,-2.2 0.8,-0.5 1.7,-0.5 2.6,-0.2 31,10.5 62,21 100.1,31.3 37.9,10.1 82.8,19.9 141.7,28.9 61.3,9.5 137.3,18 207.6,18 55.8,0 107.8,-5.4 145.9,-19.9 6.3,-2.6 12.3,-5.2 17.9,-8.1 4.5,-2.5 8.7,-5.1 12.6,-7.8 32.2,-22.6 45.7,-56.9 45.7,-93.3 0,-37.2 -14,-76.8 -36.7,-109.1 -23.8,-33.6 -56.7,-58.9 -95.6,-80.3 -38.9,-21.4 -83.9,-38.9 -131.7,-57.1 -47.7,-18.1 -98,-36.8 -149.6,-55.7 -51.6,-19 -104.4,-38.2 -157.3,-57.4 -1.4,-0.6 -2.3,-2 -2,-3.5 l 126.4,-699.2 c 0.2,-0.8 0.6,-1.5 1.3,-2 0.7,-0.5 1.5,-0.7 2.4,-0.5 l 298.7,54.8 c 0.8,0 1.5,0.5 2,1.2 0.4,0.7 0.6,1.5 0.4,2.4 l -85.5,434 c -0.9,-0.2 -1.8,-0.5 -2.6,-0.7 l 2,3.6 0.6,-2.9 c 90.1,28.3 180.4,56.6 264.6,94.7 85.1,38.4 163.8,86.5 229.8,154.3 116.3,119.4 193.2,299.5 193.2,454.7 0,20.9 -1.5,41.4 -4.3,61.1" /></g><g
         transform="scale(1.48345)"
         id="g218"><path
           id="path220"
           style="fill:#4463b7;fill-opacity:1;fill-rule:nonzero;stroke:none"
           d="m 16300,15260 c 0,-4.5 -0.6,-9 -1.8,-13.4 -4.3,-15.3 -12,-29.5 -21.7,-42.5 -9.5,-12.9 -20.8,-24.7 -32,-35.5 -9.1,-8.6 -18.9,-17.3 -29.6,-24.8 -10.6,-7.3 -22.1,-13.4 -34.6,-16.7 -3.4,-0.9 -6.8,-1.5 -10.1,-2.1 -4.8,-0.6 -9.5,-1 -14.4,-1 -31.7,0 -64.2,13.8 -91.2,28.7 -8.7,4.7 -18.1,10.4 -26.2,17.3 -8.2,6.9 -15.3,15 -19.4,24.9 -4.8,11 -6.5,23.1 -6.5,35.2 0,8.9 1,17.9 2.4,26.4 2.8,17.4 8.1,34.6 16.3,50.3 3.7,7 12.8,19.3 12.9,19.3 0.1,0.2 0.3,0.4 0.5,0.6 0,0 26.1,22.5 41.4,30.8 20.8,11.2 44.3,21 68.3,24.4 6,0.8 12,1.4 18.1,1.4 3.1,0 6.3,-0.2 9.4,-0.5 16.3,-1.5 31.5,-8.4 45.3,-17.9 13.7,-9.5 26.1,-21.6 36.6,-33.3 16.9,-18.6 36.3,-45.3 36.3,-71.6" /></g><g
         transform="scale(1.85108)"
         id="g222"><path
           id="path224"
           style="fill:#fab833;fill-opacity:1;fill-rule:nonzero;stroke:none"
           d="m 16299.5,13208.1 -2.2,-3.6 c 0.9,0.2 1.8,0.4 2.7,0.8 l -0.5,2.8" /></g><g
         transform="scale(1.92963)"
         id="g226"><path
           id="path228"
           style="fill:#fab833;fill-opacity:1;fill-rule:nonzero;stroke:none"
           d="m 15715.5,12251.1 -2.3,-3.6 -0.7,3 z m -288.4,-52.8 3,0.6 0.5,-3.1 z m -120.4,669 1.9,3.4 0.5,-2.5 c -0.8,-0.3 -1.6,-0.6 -2.4,-0.9 z m -101.1,407.6 c 1.1,0.4 2.2,0.7 3.3,1.1 l 0.6,-3.5 z m -70.9,422.4 h -0.1 l 2.2,3.3 0.4,-2.5 c -0.8,-0.3 -1.7,-0.5 -2.5,-0.8 z m 1161.2,-291.5 c -11.3,77.9 -46.5,145 -97.9,200 -51.5,54.9 -119.2,97.6 -195.6,126.9 -5.1,1.9 -10.4,3.9 -15.6,5.8 -103.9,36.7 -222.3,49.1 -333.2,49.1 -60.5,0 -118.7,-3.7 -170.9,-9.2 -74.1,-7.8 -136.3,-19.1 -192.6,-32.3 -56.4,-13.2 -106.8,-28.1 -157.2,-43.1 -1.4,-0.4 -2.3,-1.8 -2.1,-3.3 l 72.8,-428.2 c 0.2,-0.9 0.6,-1.6 1.4,-2 0.7,-0.5 1.7,-0.6 2.5,-0.3 30,10.1 59.9,20.3 96.5,30.2 36.6,9.8 80.1,19.3 136.9,28 59.2,9.1 132.6,17.3 200.4,17.3 53.8,0 104.1,-5.2 140.9,-19.3 6.1,-2.3 11.8,-4.9 17.2,-7.7 4.3,-2.5 8.4,-5 12.2,-7.6 31.1,-21.8 44.1,-54.8 44.1,-90 0,-35.9 -13.6,-74.1 -35.5,-105.3 -22.9,-32.5 -54.7,-56.9 -92.2,-77.5 -37.6,-20.6 -81,-37.6 -127.2,-55.1 -46,-17.4 -94.5,-35.5 -144.3,-53.8 -49.8,-18.3 -100.8,-36.9 -151.8,-55.4 -1.4,-0.5 -2.2,-1.9 -2,-3.3 l 122.1,-674.9 c 0.1,-0.8 0.5,-1.5 1.2,-1.9 0.7,-0.5 1.5,-0.7 2.2,-0.5 l 288.4,52.8 c 0.8,0.1 1.5,0.6 1.9,1.2 0.5,0.7 0.6,1.5 0.5,2.3 l -82.5,419.1 c -0.9,-0.4 -1.8,-0.6 -2.6,-0.9 l 2,3.5 0.6,-2.6 c 87,27.2 174.1,54.5 255.3,91.2 82.1,37 158.2,83.6 221.8,149 112.2,115.2 186.4,288.9 186.4,438.7 0,20.2 -1.3,39.9 -4.1,59.1" /></g><g
         transform="scale(1.86311)"
         id="g230"><path
           id="path232"
           style="fill:#fab833;fill-opacity:1;fill-rule:nonzero;stroke:none"
           d="m 16064.4,12469.3 0.1,0.1 c 0,0 -0.1,0 0,0 -0.1,-0.1 -0.1,-0.1 -0.1,-0.1 0,-0.2 0,-0.2 -0.1,-0.2 h -0.1 z m 201.6,9.1 c -9.9,10.9 -21.4,22.4 -34.4,31.3 -12.9,8.9 -27.2,15.5 -42.5,16.8 -3.2,0.3 -6.2,0.5 -9.2,0.5 -5.6,0 -11.2,-0.5 -16.7,-1.3 -22.5,-3.2 -44.6,-12.4 -64.2,-23 -14.4,-7.7 -38.9,-28.9 -38.9,-28.9 -0.1,-0.1 -0.3,-0.4 -0.5,-0.5 0,0 -8.5,-11.6 -12.1,-18.2 -7.6,-14.7 -12.7,-30.9 -15.3,-47.2 -1.3,-7.9 -2.2,-16.4 -2.2,-24.8 0,-11.3 1.6,-22.8 6,-33.1 3.9,-9.2 10.6,-16.9 18.2,-23.3 7.8,-6.6 16.5,-11.9 24.8,-16.4 25.2,-14 55.8,-26.8 85.5,-26.8 4.5,0 9.1,0.3 13.7,1 3.1,0.4 6.3,1 9.5,1.8 11.8,3.1 22.6,8.8 32.5,15.8 10,6.9 19.3,15.2 27.7,23.2 10.6,10.1 21.2,21.1 30.2,33.3 9,12.2 16.3,25.5 20.3,40 1.1,4.1 1.6,8.3 1.6,12.5 0,24.8 -18.2,49.8 -34,67.3" /></g><g
         transform="scale(1.65741)"
         id="g234"><path
           id="path236"
           style="fill:#f89b72;fill-opacity:1;fill-rule:nonzero;stroke:none"
           d="m 10866.9,15841 c 0,-58.5 -5.3,-117.3 -15.9,-174.6 -5.3,-27.9 -12.1,-57 -22.7,-84.3 -10.5,-27.4 -24.6,-53 -44.3,-74.1 -57.1,-61 -149.5,-92.3 -235.2,-92.3 -13,0 -25.7,0.6 -38.3,2.1 -0.5,0.1 -0.8,0.1 -1.4,0.2 -58.5,7.1 -116.4,29.5 -168.5,62 -51.9,32.6 -97.9,75.2 -132.8,122.6 -20.2,27.4 -35.4,58.1 -47.1,90.3 -11.7,32.2 -19.8,66 -25.7,99.1 -6.3,35.5 -10.3,72.4 -10.3,109.1 0,36 3.9,72.1 13.4,106.5 16.1,57.6 49.7,110.4 92.6,155.6 42.9,45 95.1,82.3 148.2,109.1 32,16.1 69,27.7 105.5,27.7 5.6,0 11.3,-0.2 16.9,-0.8 1.2,-0.2 2.6,-0.3 3.9,-0.5 42.6,-5 84.2,-19 123.4,-38.8 39,-19.8 75.6,-45.3 108,-73 28.9,-24.7 55.8,-53 76.4,-85.2 6.4,-9.9 17,-30.7 17.1,-30.7 0,0 0.1,-0.2 0.1,-0.3 0,0 9.2,-22.4 12.9,-34 4.1,-13 7.3,-26.3 10,-39.6 6.1,-29.8 9.5,-60.1 11.6,-90.5 1.4,-21.8 2.2,-43.7 2.2,-65.6" /></g><g
         transform="scale(1.92051)"
         id="g238"><path
           id="path240"
           style="fill:#192543;fill-opacity:1;fill-rule:nonzero;stroke:none"
           d="m 9509.97,16035.1 c -20.98,6.3 19.16,26.9 25,26.5 0.52,0.5 11.5,1.5 17.8,3 -9.06,-11.1 -31.97,-28.6 -42.8,-29.5 z m 236.61,-190.8 c -3.23,13.4 -6.51,25.6 -9.74,38.1 h -0.11 c -26.39,84.5 -44.2,164.9 -100.7,215 43.74,124.5 -128.87,202.6 -222.8,125 73.26,0.8 170.99,-3.2 166.05,-103.4 -203.13,-10.1 -200.83,-221 10.93,-75.1 6.25,-3.2 22.96,-36.4 24.01,-51.8 10.72,-68.2 23.11,-145.5 14.32,-219.5 l 118.04,71.7" /></g><g
         transform="scale(1.85546)"
         id="g242"><path
           id="path244"
           style="fill:#192543;fill-opacity:1;fill-rule:nonzero;stroke:none"
           d="m 11911.8,16151.7 c 3.2,22.4 30.5,-15.5 30.9,-21.5 0.6,-0.5 3.3,-11.6 5.9,-17.8 -12.8,7.6 -34.2,28.3 -36.8,39.3 z m -158.8,-271.6 c 13.2,5.4 25.1,10.6 37.4,15.8 v 0.1 c 82.5,40.1 162,70.8 204.6,136.3 134.2,-25.6 187.5,163.1 93.5,247.3 12.2,-74.9 23.1,-175.5 -80.2,-185.9 -41.6,206.3 -257.1,171.5 -75.1,-22.8 -2.4,-6.9 -33.7,-29.1 -49.4,-32.5 -68.1,-21.5 -145.3,-46.2 -222.4,-48.6 l 91.6,-109.7" /></g><g
         transform="scale(1.82886)"
         id="g246"><path
           id="path248"
           style="fill:#192543;fill-opacity:1;fill-rule:nonzero;stroke:none"
           d="m 9163.69,16178.3 c 1.7,4 3.45,11.2 3.83,11.5 0.33,4 17.99,28.6 20.12,14 -1.69,-7.1 -15.58,-20.6 -23.95,-25.5 z m 186.4,-79.5 c -50.03,1.5 -100.12,17.5 -144.35,31.5 -10.12,2.2 -30.46,16.6 -31.99,21.1 118.06,126 -21.76,148.6 -48.77,14.7 -67.04,6.8 -59.93,72.1 -52.05,120.7 -60.92,-54.6 -26.36,-177.1 60.69,-160.5 27.61,-42.5 79.23,-62.4 132.76,-88.4 h -0.05 c 7.98,-3.5 15.74,-6.8 24.33,-10.3 l 59.43,71.2" /></g><g
         transform="scale(1.63425)"
         id="g250"><path
           id="path252"
           style="fill:#d67d52;fill-opacity:1;fill-rule:nonzero;stroke:none"
           d="m 10566.6,15853.3 c -7.3,0 -14.7,1.8 -21.5,5.6 -21.2,11.9 -28.8,38.7 -16.9,59.9 37.2,66.6 87,108.8 148,125.6 35.4,9.8 69.6,9.2 98.6,4.6 -20.4,52 -49.9,88.5 -88.1,109 -82.8,44.3 -185.2,2 -186.1,1.6 -22.4,-9.5 -48.3,0.9 -57.8,23.3 -9.5,22.3 0.7,48.1 23.1,57.7 5.7,2.4 141.1,59.4 261.6,-4.5 79.6,-42.3 131.8,-124.9 155,-245.8 3.2,-17 -3.7,-34.2 -17.7,-44.2 -14.1,-10.1 -32.6,-10.9 -47.6,-2.4 -0.1,0.1 -35.9,19.9 -80,20.4 -55.6,0.4 -98.5,-28.2 -132.1,-88.3 -8.1,-14.4 -23.1,-22.5 -38.5,-22.5" /></g><g
         transform="scale(1.64052)"
         id="g254"><path
           id="path256"
           style="fill:#192543;fill-opacity:1;fill-rule:nonzero;stroke:none"
           d="m 12083.1,16160.5 c 0,-77 -62.4,-139.4 -139.4,-139.4 -77,0 -139.5,62.4 -139.5,139.4 0,77.1 62.5,139.5 139.5,139.5 77,0 139.4,-62.4 139.4,-139.5" /></g><g
         transform="scale(1.62648)"
         id="g258"><path
           id="path260"
           style="fill:#192543;fill-opacity:1;fill-rule:nonzero;stroke:none"
           d="m 13218,16159.4 c 0,-77.7 -63,-140.7 -140.7,-140.7 -77.7,0 -140.6,63 -140.6,140.7 0,77.6 62.9,140.6 140.6,140.6 77.7,0 140.7,-63 140.7,-140.6" /></g><g
         transform="scale(1.67767)"
         id="g262"><path
           id="path264"
           style="fill:#192543;fill-opacity:1;fill-rule:nonzero;stroke:none"
           d="m 11403.1,16083.7 c 0,0 106.5,216.3 298.7,192.2 l 72.2,-95.2 c 0,0 -293.6,-35.2 -329.7,-150.2 l -41.2,53.2" /></g><g
         transform="scale(1.66442)"
         id="g266"><path
           id="path268"
           style="fill:#192543;fill-opacity:1;fill-rule:nonzero;stroke:none"
           d="m 13094,16062.8 c 0,0 -73,231.8 -268.3,237.2 l -86.3,-83.9 c 0,0 287,-79.9 305.4,-200 l 49.2,46.7" /></g><g
         transform="scale(1.80948)"
         id="g270"><path
           id="path272"
           style="fill:#214175;fill-opacity:1;fill-rule:nonzero;stroke:none"
           d="m 9351.09,15628.8 c -16.02,41.5 -24.65,85.5 -29.78,129.9 -4.87,44.6 -4.81,90 0.33,135.4 5.3,45.3 16.19,90.7 33.87,134.2 4.48,10.9 8.85,21.7 14.59,32.1 5.64,10.4 10.5,21.2 17.19,31.1 12.21,20.4 26.8,39.3 42.22,57.6 l 24.87,25.9 27.14,23.5 c 9.28,7.5 19.5,13.8 29.18,20.6 9.61,7.2 20.22,12.5 30.61,18.2 l 15.7,8.3 c 5.19,2.8 10.77,4.8 16.14,7.1 10.83,4.5 21.6,9.3 32.66,13 l 33.43,10 c 11.05,3.6 22.49,5.1 33.77,7.4 90.47,16.9 181.49,11.5 266.93,-11.6 -22.06,-3.3 -43.77,-6.1 -65.33,-8.3 l -63.88,-10 c -41.89,-8.4 -83.18,-16.6 -122.03,-30.6 -19.84,-5.8 -38.24,-14.6 -57.03,-22.1 -9.17,-4.2 -17.85,-9.3 -26.86,-13.6 -4.36,-2.4 -9.06,-4.3 -13.21,-7 l -12.54,-8 c -17.19,-10 -32.66,-22.2 -47.97,-34.4 l -21.88,-19.5 -20.01,-21.4 c -51.73,-58.8 -85.66,-133.4 -106.22,-213.7 -20.67,-80.6 -29.57,-165.9 -31.89,-254.1" /></g><g
         transform="scale(1.85352)"
         id="g274"><path
           id="path276"
           style="fill:#214175;fill-opacity:1;fill-rule:nonzero;stroke:none"
           d="m 10098.8,16096.7 c 17.2,25.9 38.7,48.3 61.4,69.2 22.8,20.9 47.7,39.5 74,56.3 52.6,33.3 111.9,57.9 175,70.1 l 23.8,3.8 c 7.9,1 16,1.7 24,2.5 8.1,0.9 16.2,0.7 24.2,1 8.1,0.2 16.2,0.4 24.3,-0.3 32.4,-1.3 64.8,-7.1 95.4,-17.2 15.5,-4.6 30.2,-11.4 44.7,-18 7.2,-3.6 14.1,-7.6 21,-11.5 l 10.3,-6 9.7,-6.8 c 6.5,-4.7 12.9,-9.1 19,-14 6,-5.2 11.9,-10.3 17.6,-15.6 2.8,-2.7 5.8,-5.2 8.4,-8.1 l 7.9,-8.7 c 5,-6 10.1,-11.7 14.8,-17.8 -57.5,22.8 -111.7,41.1 -167,46.9 -6.8,0.9 -13.6,1.9 -20.6,2.1 -6.9,0.3 -13.6,1.1 -20.5,1.3 -6.9,0.1 -13.7,0 -20.5,0.3 -6.9,0.2 -13.7,-0.5 -20.5,-0.6 l -10.3,-0.4 -10.2,-0.9 c -6.8,-0.7 -13.6,-0.9 -20.4,-2.1 l -20.4,-2.6 -20.3,-3.6 c -54.3,-10.4 -108.2,-27.1 -161.8,-48.1 -53.9,-20.8 -107.1,-45.2 -163,-71.2" /></g><g
         transform="scale(1.77762)"
         id="g278"><path
           id="path280"
           style="fill:#214175;fill-opacity:1;fill-rule:nonzero;stroke:none"
           d="m 12233.9,16300 c 32.3,-3.2 63.3,-12.1 93.7,-22.8 30.4,-10.8 59.7,-24.7 87.9,-40.8 56.3,-32.3 108,-75 150,-127.1 l 15,-20.1 c 4.9,-6.9 9.4,-13.9 14.1,-21 4.7,-6.9 8.5,-14.5 12.7,-21.9 4.1,-7.3 8.2,-14.6 11.5,-22.5 14.6,-30.4 25.1,-63.1 30.6,-96.3 3.4,-16.4 4.3,-33.3 5.3,-49.9 0.1,-8.4 -0.2,-16.7 -0.4,-25 l -0.6,-12.4 -1.5,-12.3 c -1.2,-8.2 -2,-16.3 -3.6,-24.4 -1.9,-7.9 -3.7,-15.9 -5.9,-23.7 -1.1,-4 -1.9,-7.9 -3.2,-11.7 l -4.2,-11.5 c -3.1,-7.6 -5.8,-15 -9.2,-22.4 -7.1,64.2 -16.6,123 -38.2,176.9 -2.5,6.7 -4.9,13.5 -8.2,19.9 -2.9,6.5 -5.5,13.2 -8.7,19.6 -3.3,6.4 -6.7,12.7 -9.8,19.1 -3,6.4 -7.1,12.3 -10.5,18.5 l -5.3,9.3 -5.8,9 c -4,5.9 -7.4,12.1 -11.9,17.8 l -12.3,17.5 -13.3,17 c -36,44.9 -77.7,86.5 -123.1,125.8 -45.5,39.5 -94,76.6 -145.1,115.4" /></g><g
         transform="scale(1.74954)"
         id="g282"><path
           id="path284"
           style="fill:#214175;fill-opacity:1;fill-rule:nonzero;stroke:none"
           d="m 11667.4,16300 c 17,-56 35,-107.6 58.5,-154.7 23.1,-47.1 51.9,-88.3 87.7,-120.8 l 13.6,-11.9 14.6,-10.7 c 4.7,-3.8 10.1,-6.7 15.1,-10.1 5,-3.5 10.5,-6.2 15.9,-9.3 10.4,-6.5 22.1,-10.8 33.4,-16.5 l 17.7,-6.8 c 5.9,-2.6 12,-4.5 18.3,-6.4 49.4,-16.3 103.6,-25 161.5,-34.7 -53.4,-24.5 -113.2,-34.2 -174.3,-28.7 -15.4,0.8 -30.5,4.6 -45.8,7.6 -15,4.3 -30.1,8.7 -44.7,15.2 -29.1,12.4 -56.9,29.5 -80.6,51.3 -47.8,43.3 -78.8,101.4 -93.2,160.1 -7.2,29.5 -10.7,59.4 -10.5,89.1 0.4,29.6 3.5,59.1 12.8,87.3" /></g><g
         transform="scale(1.69803)"
         id="g286"><path
           id="path288"
           style="fill:#214175;fill-opacity:1;fill-rule:nonzero;stroke:none"
           d="m 10536.4,16300 c 50.5,-32.9 99,-61.7 148.6,-83.5 49.5,-21.7 99.5,-35.3 149.2,-37.2 l 18.7,-0.4 18.6,1.2 c 6.2,0.2 12.3,1.5 18.6,2.1 6.3,0.5 12.4,2 18.6,3.2 12.6,1.8 24.7,6.1 37.3,9 l 18.6,6.4 c 6.3,1.9 12.5,4.4 18.6,7 49.8,19.9 98.3,49 150.5,79.6 -26,-54.8 -66.7,-102 -118.6,-138.1 -12.6,-9.5 -27.1,-16.6 -41.2,-24.3 -14.6,-6.6 -29.5,-13.1 -45.3,-17.6 -31.2,-9.4 -64.5,-14.3 -97.6,-12.8 -66.4,2.5 -129.3,27.8 -179.5,64.6 -25.3,18.5 -47.9,39.9 -67.4,63.3 -19.2,23.7 -36.4,49.1 -47.7,77.5" /></g><g
         transform="scale(1.7622)"
         id="g290"><path
           id="path292"
           style="fill:#214175;fill-opacity:1;fill-rule:nonzero;stroke:none"
           d="m 10879.4,15981 c 58,1.7 112.2,5.6 163.4,15.9 51.1,9.9 98.1,26.8 138.4,52.7 l 15,10 14.1,11.1 c 4.9,3.6 9,8 13.6,12 4.7,3.8 8.6,8.4 12.9,12.7 9,8.4 16.2,18.5 24.6,27.7 l 11.1,15.3 c 4,4.9 7.5,10.3 10.8,15.8 28.5,43.1 50.9,92.9 75.3,145.8 9.5,-57.6 3.3,-117.4 -17.8,-174.5 -4.8,-14.5 -12.3,-28 -19.1,-41.8 -8,-13.4 -16.1,-26.7 -26.2,-38.9 -19.5,-24.7 -43.1,-47 -70.1,-64 -53.9,-34.6 -117.5,-49.2 -177.6,-47.8 -30.1,0.8 -59.7,5.2 -88,13 -28.3,8.1 -55.8,18.7 -80.4,35" /></g><g
         transform="scale(1.74797)"
         id="g294"><path
           id="path296"
           style="fill:#f89b72;fill-opacity:1;fill-rule:nonzero;stroke:none"
           d="m 9548.22,15682 c 0,0 678.08,270.5 585.78,444.3 -92.3,173.7 -533.83,-139.1 -533.83,-139.1 l -252.64,13.8 200.69,-319" /></g><g
         transform="scale(1.74794)"
         id="g298"><path
           id="path300"
           style="fill:#192543;fill-opacity:1;fill-rule:nonzero;stroke:none"
           d="m 10205.9,15991.1 c 0,-170.6 -180.3,-344.1 -311.19,-344.1 -130.96,0 -8.24,283.6 -184.56,428.4 -131.87,108.2 127.75,224.6 258.7,224.6 130.95,0 237.05,-138.3 237.05,-308.9" /></g><g
         transform="scale(1.56414)"
         id="g302"><path
           id="path304"
           style="fill:#df932a;fill-opacity:1;fill-rule:nonzero;stroke:none"
           d="m 7143.76,16197.4 c -50.64,-32.2 -106.2,-51.5 -162.97,-65.4 -56.96,-13.2 -115.85,-19.8 -175.69,-17 -14.89,0.7 -29.92,2.3 -44.88,3.8 -15.02,2.5 -29.98,4.6 -44.94,8.3 -29.73,7.1 -59.4,16.7 -87.27,31.5 -27.81,14.8 -53.96,34.1 -74.42,58.4 -20.33,24.2 -34.71,53.2 -38.55,83 43.28,-41.9 89.89,-61.6 139.37,-74 49.81,-11.7 101.72,-16.7 155.04,-19.1 53.26,-2.6 107.66,-2.6 163.16,-3.2 55.56,-0.8 111.75,-1 171.15,-6.3" /></g><g
         transform="scale(1.55265)"
         id="g306"><path
           id="path308"
           style="fill:#df932a;fill-opacity:1;fill-rule:nonzero;stroke:none"
           d="m 6694.94,16025.4 c 49.01,20.2 94.29,37.5 138.41,55.9 43.99,18.3 86.17,37.4 126.81,58.6 40.64,21.2 79.8,44.4 118.25,71 38.97,26.2 75.75,56.6 118.19,89.1 -4.45,-26.3 -12.95,-51.7 -24.86,-75.4 -11.6,-24 -26.67,-46.3 -43.61,-67.1 -34.26,-41.3 -77.6,-75.3 -125.2,-99.9 -47.6,-24.7 -99.31,-40.3 -151.61,-46.7 -26.22,-3 -52.62,-3.8 -78.9,-1.8 -26.15,2.2 -52.43,6.5 -77.48,16.3" /></g><g
         transform="scale(1.72928)"
         id="g310"><path
           id="path312"
           style="fill:#df932a;fill-opacity:1;fill-rule:nonzero;stroke:none"
           d="m 7809.69,15029.5 c -43.32,-17.7 -86.4,-35.1 -128.96,-51.8 -68.59,-27.1 -135.67,-52.5 -199.68,-75.4 105.59,481.4 -403.41,1086.6 -639.23,1336 98.6,22 198.7,42.6 298.86,61.7 674.96,-652.5 715.56,-1067.7 669.01,-1270.5" /></g><g
         transform="scale(1.74151)"
         id="g314"><path
           id="path316"
           style="fill:#df932a;fill-opacity:1;fill-rule:nonzero;stroke:none"
           d="m 8419.08,15220 c 16.65,207.2 -68.79,562.5 -569.68,1080 -103.47,-11 -212.23,-24.7 -324.15,-41.2 242.44,-272 620.96,-772.6 564.4,-1192.9 l 329.43,154.1" /></g><g
         transform="scale(1.38838)"
         id="g318"><path
           id="path320"
           style="fill:#df932a;fill-opacity:1;fill-rule:nonzero;stroke:none"
           d="m 13878.3,16134.8 c -60.4,-177.8 -231.7,-484 -392.2,-645.2 -199.1,-200 -539.4,-231.5 -964,-123.6 -323.6,82.1 -673.3,588.5 -821.6,824.8 82.8,26.5 162.1,67.2 241.7,108.3 1.9,0.9 4.2,0.3 5.3,-1.4 83,-120.8 165.8,-241.6 254.2,-360.3 49.7,-66.8 101,-132.7 158.2,-192.6 44.6,-46.5 92.7,-89.3 146.3,-125.7 112.7,-76.4 250,-124.6 394.6,-124.6 12.7,0 25.5,0.2 38.4,1.1 79.3,4.7 160.2,24.3 237.2,56.1 77.2,31.7 150.4,75.7 213.8,129.3 63.6,53.5 117.6,116.6 166.7,184.8 49.2,68 93.5,140.9 138.1,214.1 0.5,0.6 1.2,1.4 2.1,1.7 41.4,15.4 82.8,30.8 144.4,45.2 11.5,2.7 23.7,5.4 36.8,8" /></g><g
         transform="scale(1.31797)"
         id="g322"><path
           id="path324"
           style="fill:#df932a;fill-opacity:1;fill-rule:nonzero;stroke:none"
           d="m 14619.7,15321.5 c 0,0 794.5,568.9 1522.9,472 L 16300,15563 c 0,0 -930.9,-71.1 -1481.6,-569.3 l -198.7,327.8" /></g><g
         transform="scale(1.2924)"
         id="g326"><path
           id="path328"
           style="fill:#df932a;fill-opacity:1;fill-rule:nonzero;stroke:none"
           d="m 10739.4,15009.5 c 73.6,31.9 144.1,67 212.8,104.6 68.8,37.3 135.6,77.3 200,120.1 129.2,84.9 248.6,182 356.8,289.7 l 40.1,40.9 c 13.1,13.9 25.5,28.4 38.4,42.5 13.3,13.7 25.4,28.5 37.6,43.1 12.1,14.8 25,29 36.5,44.3 48.4,59.3 91.2,122.9 133.7,187.2 81.9,130.7 150.7,270.8 214.3,418.1 -13.4,-159.9 -59.5,-317.6 -129.1,-465.2 -19,-36 -36.3,-73.3 -58.3,-107.8 -10.7,-17.4 -20.7,-35.3 -32.1,-52.3 l -34.7,-50.6 c -48.1,-66.4 -100.6,-129.8 -158.9,-187.7 -116.3,-115.7 -250.4,-213 -395.7,-286.1 -72.6,-36.7 -147.8,-67.8 -225,-91.9 -38.5,-12.3 -77.6,-22.7 -117,-31 -39.4,-8.3 -79.2,-15.3 -119.4,-17.9" /></g><g
         transform="scale(1.42817)"
         id="g330"><path
           id="path332"
           style="fill:#df932a;fill-opacity:1;fill-rule:nonzero;stroke:none"
           d="m 15260,14937.8 c 36.7,-20.9 71.5,-44.8 105.7,-69.6 34.3,-24.7 67.4,-50.8 99.9,-77.8 65,-54.1 126.3,-112.3 185,-173.2 117.3,-122.2 221.9,-256.7 313,-399.9 22.2,-36.2 44.5,-72.4 65.2,-109.5 10.4,-18.5 20.8,-36.9 30.5,-55.8 9.7,-19 19.9,-37.6 29.2,-56.6 18,-38.5 37.3,-76.3 53.3,-115.7 8.1,-19.6 17,-38.9 24.5,-58.7 l 22.5,-59.6 c 57.9,-159.3 97.5,-325.4 111.2,-493.3 -59.2,157.7 -120.6,311 -192.4,459.2 -35.7,74.1 -73.7,146.8 -113.1,218.7 -20.6,35.4 -39.8,71.6 -61.5,106.4 -20.4,35.6 -42.3,70.2 -64,105 -88,138.4 -182.7,272.6 -284.7,402.1 -50.8,64.9 -103.1,129 -157.2,191.9 -54,63.1 -109.3,125.2 -167.1,186.4" /></g><g
         transform="scale(1.87429)"
         id="g334"><path
           id="path336"
           style="fill:#7998d5;fill-opacity:1;fill-rule:nonzero;stroke:none"
           d="m 16300,11384.7 -47.1,-110.2 -1231.4,-2881.24 c -0.5,-1.22 -1.7,-1.97 -3,-1.97 l -4178.7,-269.49 -81.3,134.35 c -1,0 -2,0.58 -2.5,1.44 -0.5,0.85 -0.6,1.97 -0.2,2.93 l 1434.7,3127.28 c 0.6,1.1 1.7,1.9 2.9,1.8 l 4025.3,129.5 c 1.1,-0.1 2,-0.6 2.5,-1.4 0.6,-0.9 0.7,-2 0.3,-2.9 l 78.5,-130.1" /></g><g
         transform="scale(1.61501)"
         id="g338"><path
           id="path340"
           style="fill:#df932a;fill-opacity:1;fill-rule:nonzero;stroke:none"
           d="m 15701.9,8363.44 c -11.9,3.59 -23.6,7.24 -35.5,11.02 -109.7,34.86 -213.3,74.67 -312.6,114.05 -8.8,3.47 -17.6,6.94 -26.4,10.47 662.9,516.59 -3.1,1485.87 -3.1,1485.87 0,0 -538.8,572.05 302.8,-106.31 672.9,-542.29 265.3,-1252.13 74.8,-1515.1" /></g><g
         transform="scale(1.6773)"
         id="g342"><path
           id="path344"
           style="fill:#df932a;fill-opacity:1;fill-rule:nonzero;stroke:none"
           d="m 15959.6,7957.55 c -53.6,-3.16 -106.9,-4.65 -159.6,-4.65 -85.1,0 -168.7,3.99 -249.6,12.1 523.7,508.5 -69.9,1372.5 -69.9,1372.5 0,0 -518.8,550.77 291.6,-102.36 527.9,-425.45 365.1,-957.91 187.5,-1277.59" /></g><g
         transform="scale(1.87429)"
         id="g346"><path
           id="path348"
           style="fill:#99b3e2;fill-opacity:1;fill-rule:nonzero;stroke:none"
           d="m 16300,11384.7 -47.1,-110.2 -3950,-71.4 -109.5,186.5 4025.3,129.5 c 1.1,-0.1 2,-0.6 2.5,-1.4 0.6,-0.9 0.7,-2 0.3,-2.9 l 78.5,-130.1" /></g><g
         transform="scale(1.87465)"
         id="g350"><path
           id="path352"
           style="fill:#cbd7f1;fill-opacity:1;fill-rule:nonzero;stroke:none"
           d="M 16299.6,11378.2 15099.8,8257.27 c -0.5,-1.22 -1.6,-1.97 -3,-1.97 l -4259,-135.12 c -1.1,0 -2.1,0.59 -2.6,1.44 -0.5,0.86 -0.6,1.97 -0.2,2.94 l 1434.5,3126.64 c 0.5,1.1 1.6,1.9 2.8,1.8 l 4024.6,129.5 c 1,-0.1 1.9,-0.6 2.4,-1.4 0.6,-0.9 0.7,-2 0.3,-2.9" /></g><g
         transform="scale(1.65721)"
         id="g354"><path
           id="path356"
           style="fill:none;stroke:#f5ecd8;stroke-width:144.82200623;stroke-linecap:butt;stroke-linejoin:miter;stroke-miterlimit:10;stroke-dasharray:none;stroke-opacity:1"
           d="m 16300,11236.2 c 0,-218.8 -438,-625.6 -792.5,-542.2 -230.8,54.3 -207.7,412.8 -108,657 82.7,202.5 392.2,436 629.4,436 237.1,0 271.1,-331.9 271.1,-550.8 z" /></g><g
         transform="scale(1.55571)"
         id="g358"><path
           id="path360"
           style="fill:#4463b7;fill-opacity:1;fill-rule:nonzero;stroke:none"
           d="m 16292.8,5395.67 c -0.3,0.19 -0.5,0.38 -0.8,0.57 0.1,0.78 0.3,1.48 0.4,2.19 l 1.3,-3.6 z m -709.1,-1270.61 c 0.4,0.45 0.9,0.77 1.3,1.15 l 1.8,-0.32 z m 714.8,1275.62 -1.1,0.71 c -598.9,483.12 -1139.3,990.73 -1684.9,1430.34 -545.6,439.54 -1096.4,810.95 -1480.8,1119.04 -384.9,308.47 -662.4,529.34 -887,704.43 -224.6,175.04 -396.4,304.17 -569.4,429.13 -173.1,124.89 -347.8,245.74 -524.5,338.49 -176.7,92.7 -355.4,157.36 -536.5,169.9 -6.2,0.44 -12.2,0.7 -18.4,1.02 -16.2,0.84 -32.2,1.23 -48.3,1.23 -340.7,0 -683.24,-176.97 -941.19,-423.61 -137.43,-131.45 -250.95,-282.69 -334.77,-435.74 -83.95,-153.05 -138.01,-307.84 -156.71,-446.17 -5.15,-37.73 -7.52,-74.37 -7.52,-109.91 0,-225.75 97.89,-415.76 241.75,-656.42 83.43,-139.55 182.49,-296.27 337.47,-480.17 154.97,-183.97 365.97,-395.06 673.47,-643.11 307.5,-247.93 711.4,-533.07 1155.3,-806.65 443.8,-273.63 927.7,-535.83 1395.3,-738.31 467.7,-202.48 919,-345.18 1362.1,-457.86 443,-112.81 877.9,-195.6 1312.6,-278.39 1.2,-0.26 2.3,0.06 3.1,0.77 93.6,80.03 187.4,160.06 272.5,246.83 85.2,86.84 161.9,180.24 221.3,286.88 118.6,213.22 168.1,478.95 217.5,743.97 0.2,1.35 -0.3,2.7 -1.3,3.6" /></g><g
         transform="scale(1.22439)"
         id="g362"><path
           id="path364"
           style="fill:#192543;fill-opacity:1;fill-rule:nonzero;stroke:none"
           d="m 16232.8,6158.81 c -9.2,0 -18.4,2.12 -27.1,6.61 -7.8,4.09 -792.1,412.94 -1687,974.85 -1204.6,756.46 -2025.4,1414.99 -2439.7,1957.38 -119.5,156.57 -205.4,304.97 -255.2,441.04 -11.1,30.54 4.6,64.27 35.1,75.46 30.5,11.11 64.2,-4.57 75.4,-35.03 45.7,-124.96 125.8,-262.91 238.2,-410.09 C 13141.8,7900 16228.9,6285.97 16260,6269.8 c 28.8,-15.03 40,-50.47 25,-79.3 -10.5,-20.17 -31,-31.69 -52.2,-31.69" /></g><path
         id="path366"
         style="fill:#192543;fill-opacity:1;fill-rule:nonzero;stroke:none"
         d="m 14783.1,10993.3 c -255.2,0 -568.2,212.2 -610.6,241.7 -32.6,22.8 -40.5,67.7 -17.8,100.3 22.8,32.6 67.7,40.6 100.2,17.8 v 0 c 169,-117.7 487.6,-274.5 623.1,-194.3 34.3,20.2 78.4,8.9 98.7,-25.3 20.2,-34.3 8.9,-78.4 -25.3,-98.7 -49.9,-29.4 -107.4,-41.5 -168.3,-41.5" /><g
         transform="scale(1.55983)"
         id="g368"><path
           id="path370"
           style="fill:#192543;fill-opacity:1;fill-rule:nonzero;stroke:none"
           d="m 16249,5295.01 c -11.4,0 -22.8,4.16 -31.8,12.63 -9.1,8.59 -923.7,871.7 -2010.4,1794.55 -1435.5,1218.98 -2517.6,1987.85 -3129.2,2223.58 -23.8,9.17 -35.7,35.84 -26.5,59.69 9.2,23.78 35.8,35.64 59.6,26.47 630.2,-242.84 1692.1,-996.39 3156.2,-2239.6 1088.6,-924.4 2004.6,-1788.98 2013.7,-1797.63 18.6,-17.51 19.4,-46.74 1.9,-65.27 -9,-9.61 -21.3,-14.42 -33.5,-14.42" /></g><g
         transform="scale(1.34447)"
         id="g372"><path
           id="path374"
           style="fill:#f89b72;fill-opacity:1;fill-rule:nonzero;stroke:none"
           d="m 14866.1,11530.7 c 0,0 240,229.9 537,121.4 297.1,-108.5 553.8,-348.5 725.3,-382.7 171.6,-34.3 -631.2,-211.4 -631.2,-211.4 l -631.1,234.2 v 238.5" /></g><g
         transform="scale(1.76051)"
         id="g376"><path
           id="path378"
           style="fill:#fab833;fill-opacity:1;fill-rule:nonzero;stroke:none"
           d="m 15309.8,8746.73 c 0,0 554,330.64 990.2,252.14 l -130.9,-294.23 -859.3,42.09" /></g><g
         transform="scale(1.63696)"
         id="g380"><path
           id="path382"
           style="fill:#214175;fill-opacity:1;fill-rule:nonzero;stroke:none"
           d="m 16181.4,3939.37 c -18.1,0 -35,11.24 -41.5,29.2 -7.8,22.05 -189.1,542.1 80.7,811.99 17.2,17.17 45.1,17.17 62.2,0 17.2,-17.17 17.2,-45.02 0,-62.19 -230.5,-230.49 -61.7,-715.35 -60,-720.23 8.2,-22.91 -3.8,-48.02 -26.7,-56.21 -4.8,-1.71 -9.8,-2.56 -14.7,-2.56" /></g><g
         transform="scale(1.68938)"
         id="g384"><path
           id="path386"
           style="fill:#214175;fill-opacity:1;fill-rule:nonzero;stroke:none"
           d="m 16185,3883.08 c -17.5,0 -33.9,10.83 -40.1,28.3 -7.6,21.3 -183.4,525.22 78.1,786.79 16.7,16.64 43.7,16.64 60.3,0 16.7,-16.69 16.7,-43.62 0,-60.31 -223.3,-223.34 -59.8,-693.16 -58.2,-697.89 8,-22.14 -3.6,-46.53 -25.8,-54.46 -4.7,-1.66 -9.6,-2.43 -14.3,-2.43" /></g><g
         transform="scale(1.26837)"
         id="g388"><path
           id="path390"
           style="fill:#214175;fill-opacity:1;fill-rule:nonzero;stroke:none"
           d="m 16203.6,4901.34 c -1.5,0 -3.1,0.08 -4.7,0.23 -31.2,2.53 -54.5,29.96 -51.9,61.19 34,419.35 -537.1,755.14 -542.9,758.53 -27.2,15.69 -36.4,50.38 -20.7,77.5 15.7,27.2 50.4,36.43 77.5,20.74 26.1,-15.06 639.1,-374.98 599.2,-866 -2.4,-29.64 -27.3,-52.19 -56.5,-52.19" /></g><path
         id="path392"
         style="fill:#e0a393;fill-opacity:1;fill-rule:nonzero;stroke:none"
         d="m 15029,6105.9 c -145.8,-42.9 -291.9,-85.7 -438.3,-128 H 6836.48 c -104.8,41.1 -209.44,83.9 -313.76,128 H 15029" /><path
         id="path394"
         style="fill:#e0a393;fill-opacity:1;fill-rule:nonzero;stroke:none"
         d="m 6885.3,8300 -1497.6,2293.2 107.17,70 1497.6,-2293.2 -107.17,-70" /><path
         id="path396"
         style="fill:#e0a393;fill-opacity:1;fill-rule:nonzero;stroke:none"
         d="m 11671.2,6006.9 -1497.6,2293.1 107.2,70 1497.6,-2293.1 -107.2,-70" /><g
         transform="scale(1.95099)"
         id="g398"><path
           id="path400"
           style="fill:#e0a393;fill-opacity:1;fill-rule:nonzero;stroke:none"
           d="m 16245.1,4261.17 -767.7,1175.36 55,35.88 767.6,-1175.36 -54.9,-35.88" /></g><g
         transform="scale(2.22847)"
         id="g402"><path
           id="path404"
           style="fill:#e0a393;fill-opacity:1;fill-rule:nonzero;stroke:none"
           d="m 15669.3,5751.26 622.5,-953.25 8.2,-12.52 -48,-31.46 -28.7,43.98 -622.5,953.25 h 68.5" /></g><g
         transform="scale(2.20931)"
         id="g406"><path
           id="path408"
           style="fill:#e0a393;fill-opacity:1;fill-rule:nonzero;stroke:none"
           d="m 16300,3137.04 c -18.5,-7.15 -37.1,-13.99 -55.8,-20.55 l -408.9,626.12 -30.4,46.58 20.7,13.53 27.8,18.2 11.9,-18.2 39.2,-60.11 395.5,-605.57" /></g><g
         transform="scale(1.9318)"
         id="g410"><path
           id="path412"
           style="fill:#f5ecd8;fill-opacity:1;fill-rule:nonzero;stroke:none"
           d="m 6655.51,15919.4 c 0,-210.2 -237.75,-380.6 -530.95,-380.6 -293.25,0 -530.96,170.4 -530.96,380.6 0,210.2 237.71,380.6 530.96,380.6 293.2,0 530.95,-170.4 530.95,-380.6" /></g><g
         transform="scale(2.17576)"
         id="g414"><path
           id="path416"
           style="fill:#f5ecd8;fill-opacity:1;fill-rule:nonzero;stroke:none"
           d="m 16300,8334.88 c 0,-237.62 -223.8,-430.24 -499.8,-430.24 -276,0 -499.8,192.62 -499.8,430.24 0,237.62 223.8,430.29 499.8,430.29 276,0 499.8,-192.67 499.8,-430.29" /></g></g></g></svg>